<?xml version="1.0" encoding="UTF-8"?>
<svg id="arrow" xmlns="http://www.w3.org/2000/svg" viewBox="0 0 45.47 45.48">
    <defs>
        <style>.arrow{fill:#1d1d1b;}</style>
    </defs>
    <path class="arrow"
          d="M45.27,21.69v-.03c-.05-.09-.11-.18-.16-.27-.04-.07-.07-.15-.12-.22-.1-.16-.22-.3-.35-.43h0c-.07-.07-.14-.12-.22-.18L24.9,1.03c-1.11-1.11-2.9-1.11-4.01,0-1.11,1.11-1.11,2.9,0,4.01l14.86,14.86H2.83C1.27,19.9,0,21.17,0,22.74H0C0,24.3,1.27,25.57,2.83,25.57H35.79l-14.94,14.94c-1.11,1.11-1.11,2.9,0,4.01,1.11,1.11,2.9,1.11,4.01,0l19.31-19.31c.18-.11,.35-.24,.51-.4,.85-.85,1.04-2.09,.59-3.13Z"/>
</svg>