<svg xmlns="http://www.w3.org/2000/svg" viewBox="0 0 841.89 595.28">
    <defs>
        <style>.d{fill:#1d1d1b;}.e{fill:#3a8ba8;}</style>
    </defs>
    <g id="a">
        <g>
            <g>
                <path class="d"
                      d="M284.17,365.12c0,16.7-3.19,32.41-9.58,47.15s-15.06,27.67-26.03,38.8c-10.97,11.13-23.82,19.89-38.55,26.27-14.73,6.39-30.45,9.58-47.15,9.58s-31.6-3.11-46.66-9.33c-15.06-6.22-28.16-15.06-39.29-26.52-1.64-1.63-2.46-3.27-2.46-4.91s.9-3.35,2.7-5.16c1.8-1.8,3.68-2.7,5.65-2.7,1.3,0,3.93,1.72,7.86,5.16,3.93,3.44,9.25,7.29,15.96,11.54,6.71,4.26,14.73,8.1,24.07,11.54,9.33,3.44,20.21,5.16,32.66,5.16,14.73,0,28.56-2.78,41.5-8.35,12.93-5.56,24.23-13.17,33.89-22.84,9.66-9.65,17.27-20.95,22.84-33.89,5.56-12.93,8.35-26.77,8.35-41.5V101.39c0-1.96,.74-3.68,2.21-5.16s3.19-2.21,5.16-2.21,3.6,.74,4.91,2.21c1.3,1.47,1.96,3.19,1.96,5.16V365.12Z"/>
                <path class="e"
                      d="M605.85,479.55c0,1.96-.82,3.68-2.46,5.16-1.64,1.47-3.44,2.21-5.4,2.21-2.63,0-4.59-.98-5.89-2.95L394.67,206.98V477.09c0,2.29-.8,4.1-2.38,5.4-1.59,1.31-3.33,1.96-5.23,1.96s-3.65-.74-5.23-2.21c-1.59-1.47-2.38-3.19-2.38-5.16V184.39c0-2.29,.63-4.42,1.89-6.39,1.26-1.96,3.15-2.95,5.68-2.95s4.42,1.15,5.69,3.44c2.29,3.28,7.12,9.91,14.49,19.89,7.37,9.99,16.21,22.18,26.52,36.59,10.31,14.41,21.77,30.29,34.38,47.64,12.6,17.36,25.29,34.95,38.06,52.79,12.77,17.85,25.12,35.2,37.08,52.06,11.95,16.87,22.59,31.92,31.92,45.18,9.33,13.26,16.78,24.15,22.34,32.66,5.56,8.52,8.35,13.26,8.35,14.24ZM767.43,100.9c0,1.64-.17,2.62-.49,2.95V479.55c0,1.96-.74,3.68-2.21,5.16-1.47,1.47-3.19,2.21-5.16,2.21s-3.61-.74-4.91-2.21c-1.31-1.47-1.96-3.19-1.96-5.16V124.96l-169.44,237.21c1.3,2.29,4.25,6.55,8.84,12.77,4.58,6.22,9.9,13.51,15.96,21.86,6.05,8.35,12.52,17.03,19.4,26.03,6.87,9.01,13.09,17.52,18.66,25.54,5.56,8.03,10.23,14.82,14,20.38,3.76,5.57,5.65,9.01,5.65,10.31,0,2.29-.82,4.17-2.46,5.65-1.64,1.47-3.44,2.21-5.4,2.21-2.63,0-4.59-.98-5.89-2.95L381.9,107.77c-.98-1.3-1.47-2.95-1.47-4.91s.63-3.68,1.9-5.16c1.26-1.47,3-2.21,5.21-2.21,2.84,0,4.89,1.15,6.15,3.44l180.24,250.47,179.75-252.43c1.3-1.96,3.11-2.95,5.4-2.95,1.96,0,3.84,.66,5.65,1.96,1.8,1.31,2.7,2.95,2.7,4.91Z"/>
            </g>
            <g>
                <path class="d"
                      d="M135.54,515.16c0,.14-.58,1.07-1.74,2.81-1.16,1.74-2.71,3.99-4.66,6.75-1.94,2.76-4.16,5.9-6.65,9.41-2.49,3.51-5.06,7.13-7.72,10.85-2.66,3.72-5.29,7.38-7.88,11-2.59,3.62-4.98,6.92-7.16,9.92-2.18,3-4.03,5.54-5.53,7.62-1.5,2.08-2.49,3.46-2.97,4.14-.27,.48-.68,.72-1.23,.72s-.96-.17-1.23-.51c-.27-.34-.41-.75-.41-1.23v-61.18c0-.41,.15-.77,.46-1.07s.67-.46,1.07-.46,.78,.14,1.13,.41c.34,.27,.51,.65,.51,1.13v56.48l41.13-57.7c.27-.48,.72-.72,1.33-.72,.41,0,.77,.15,1.07,.46s.46,.7,.46,1.18Zm33.46,78.58c0,.41-.15,.77-.46,1.07s-.67,.46-1.07,.46c-.55,0-.96-.2-1.23-.61l-37.45-52.49-37.45,52.08c-.27,.48-.68,.72-1.23,.72-.48,0-.87-.17-1.18-.51-.31-.34-.46-.72-.46-1.13,0-.2,.75-1.41,2.25-3.63,1.5-2.22,3.49-5.06,5.99-8.54,2.49-3.48,5.32-7.43,8.49-11.87,3.17-4.43,6.46-8.98,9.87-13.66,3.41-4.67,6.79-9.31,10.13-13.91,3.34-4.6,6.38-8.8,9.11-12.58,2.73-3.78,5.06-7.02,7.01-9.72,1.94-2.69,3.19-4.45,3.73-5.27,.27-.41,.65-.61,1.13-.61,.41,0,.8,.15,1.18,.46,.37,.31,.56,.7,.56,1.18,0,.27-.39,.99-1.18,2.15-.78,1.16-1.76,2.56-2.92,4.19-1.16,1.64-2.44,3.41-3.84,5.32-1.4,1.91-2.75,3.72-4.04,5.42-1.3,1.71-2.42,3.22-3.38,4.55-.96,1.33-1.57,2.2-1.84,2.61l35.09,49.31v-73.77c0-.48,.17-.85,.51-1.13,.34-.27,.72-.41,1.13-.41s.77,.15,1.07,.46,.46,.67,.46,1.07v78.78Z"/>
                <path class="d"
                      d="M244.4,593.54c0,.41-.14,.8-.41,1.18-.27,.38-.65,.56-1.13,.56h-50.18c-.49,0-.9-.17-1.22-.51-.32-.34-.47-.75-.47-1.23v-78.58c0-.48,.18-.85,.53-1.13,.35-.27,.74-.41,1.16-.41h50.18c.41,0,.77,.16,1.07,.48s.46,.69,.46,1.11-.15,.79-.46,1.11-.67,.47-1.07,.47h-48.7v31.61h37.96c.41,0,.77,.16,1.07,.48s.46,.69,.46,1.11-.15,.79-.46,1.11-.67,.47-1.07,.47h-37.75l-.1,7.06h38.26c1.09,0,1.64,.53,1.64,1.59,0,.4-.17,.76-.51,1.09-.34,.33-.72,.5-1.13,.5h-38.37v30.18h48.7c.41,0,.77,.19,1.07,.56,.31,.38,.46,.77,.46,1.18Z"/>
                <path class="d"
                      d="M313.88,572.42c0,3.14-.6,6.1-1.79,8.86-1.19,2.77-2.81,5.17-4.86,7.22-2.05,2.05-4.45,3.67-7.21,4.87s-5.71,1.79-8.85,1.79h-22.71c-.55,0-.94-.2-1.18-.61-.24-.41-.36-.85-.36-1.33v-76.64h-6.75v77.15c0,.48-.19,.85-.56,1.13-.38,.27-.77,.41-1.18,.41s-.78-.15-1.13-.46c-.34-.31-.51-.67-.51-1.07v-78.78c0-1.02,.55-1.53,1.64-1.53h30.8c2.73,0,5.3,.51,7.72,1.53,2.42,1.02,4.52,2.43,6.29,4.24,1.77,1.8,3.19,3.9,4.25,6.28,1.06,2.38,1.59,4.94,1.59,7.66,0,3.75-.97,7.2-2.92,10.37s-4.66,5.57-8.13,7.2c2.32,.75,4.47,1.84,6.45,3.28,1.98,1.44,3.65,3.11,5.01,5.02,1.36,1.91,2.44,4.01,3.22,6.3,.78,2.29,1.18,4.66,1.18,7.12Zm-7.98-39.25c0-2.31-.44-4.46-1.33-6.46-.89-2-2.08-3.75-3.58-5.24-1.5-1.49-3.26-2.68-5.27-3.56-2.01-.88-4.18-1.32-6.5-1.32h-19.34v33.05h19.34c2.25,0,4.4-.44,6.45-1.32,2.05-.88,3.82-2.07,5.32-3.56,1.5-1.49,2.69-3.24,3.58-5.24,.89-2,1.33-4.12,1.33-6.36Zm4.81,39.29c0-2.66-.51-5.18-1.53-7.57-1.02-2.39-2.42-4.47-4.19-6.24-1.77-1.77-3.85-3.17-6.24-4.19-2.39-1.02-4.91-1.53-7.57-1.53-.27,0-.44-.03-.51-.1h-20.77v39.29h21.28c2.73,0,5.27-.51,7.62-1.53s4.42-2.42,6.19-4.19c1.77-1.77,3.17-3.85,4.19-6.24,1.02-2.39,1.53-4.94,1.53-7.67Z"/>
                <path class="e"
                      d="M378.54,593.74c0,.41-.17,.77-.51,1.07-.34,.31-.72,.46-1.13,.46-.55,0-.96-.2-1.23-.61l-41.13-57.7v56.27c0,.48-.17,.85-.5,1.13-.33,.27-.69,.41-1.09,.41s-.76-.15-1.09-.46c-.33-.31-.5-.67-.5-1.07v-60.98c0-.48,.13-.92,.39-1.33,.26-.41,.66-.61,1.18-.61s.92,.24,1.18,.72c.48,.68,1.48,2.06,3.02,4.14,1.53,2.08,3.38,4.62,5.52,7.62,2.15,3,4.54,6.31,7.16,9.92,2.63,3.62,5.27,7.28,7.93,11,2.66,3.72,5.23,7.33,7.72,10.84,2.49,3.51,4.71,6.65,6.65,9.41s3.49,5.03,4.66,6.8c1.16,1.77,1.74,2.76,1.74,2.97Zm33.66-78.88c0,.34-.04,.55-.1,.61v78.27c0,.41-.15,.77-.46,1.07s-.67,.46-1.07,.46-.75-.15-1.02-.46c-.27-.31-.41-.67-.41-1.07v-73.87l-35.3,49.42c.27,.48,.89,1.37,1.84,2.66,.95,1.3,2.06,2.81,3.33,4.55,1.26,1.74,2.61,3.55,4.04,5.42,1.43,1.88,2.73,3.65,3.89,5.32,1.16,1.67,2.13,3.09,2.92,4.25,.78,1.16,1.18,1.88,1.18,2.15,0,.48-.17,.87-.51,1.18-.34,.31-.72,.46-1.13,.46-.55,0-.96-.2-1.23-.61l-56.27-78.37c-.2-.27-.31-.61-.31-1.02s.13-.77,.39-1.07c.26-.31,.63-.46,1.09-.46,.59,0,1.02,.24,1.28,.72l37.55,52.18,37.45-52.59c.27-.41,.65-.61,1.13-.61,.41,0,.8,.14,1.18,.41,.37,.27,.56,.61,.56,1.02Z"/>
                <path class="e"
                      d="M494.35,593.74c0,.41-.15,.77-.46,1.07s-.67,.46-1.07,.46c-.82,0-1.33-.34-1.53-1.02l-29.77-75.1-3.37,8.7c.27,.55,.85,1.91,1.74,4.09,.89,2.18,1.98,4.86,3.27,8.03s2.7,6.69,4.19,10.54c1.5,3.85,3.03,7.76,4.6,11.72s3.09,7.81,4.55,11.56c1.47,3.75,2.76,7.09,3.89,10.03,1.13,2.93,2.03,5.3,2.71,7.11,.68,1.81,1.02,2.75,1.02,2.81,0,.75-.34,1.23-1.02,1.43-.14,0-.24,.02-.31,.05-.07,.04-.17,.05-.31,.05-.68,0-1.16-.34-1.43-1.02l-24.55-62-23.84,62c-.27,.68-.78,1.02-1.53,1.02-.14,0-.22-.02-.26-.05-.04-.03-.12-.05-.26-.05-.68-.2-1.02-.72-1.02-1.53,0-.07,.41-1.19,1.23-3.38,.82-2.18,1.89-5.01,3.22-8.49s2.86-7.47,4.61-11.97c1.74-4.5,3.51-9.12,5.32-13.86,1.81-4.74,3.61-9.43,5.42-14.07,1.81-4.64,3.44-8.88,4.91-12.74,1.46-3.85,2.71-7.09,3.73-9.72,1.02-2.63,1.67-4.31,1.94-5.06,.27-.61,.78-.92,1.53-.92s1.23,.31,1.43,.92c.27,.75,.94,2.44,2,5.06,1.06,2.63,2.34,5.87,3.84,9.72,1.5,3.85,3.19,8.1,5.06,12.74,1.88,4.64,3.75,9.33,5.63,14.07,1.88,4.74,3.72,9.36,5.53,13.86s3.39,8.51,4.76,12.02c1.37,3.51,2.47,6.36,3.33,8.54,.85,2.18,1.28,3.31,1.28,3.38Z"/>
                <path class="e"
                      d="M561.37,573.25c0,3.69-.8,6.92-2.4,9.68-1.6,2.77-3.71,5.06-6.33,6.86-2.62,1.81-5.55,3.18-8.78,4.1-3.23,.92-6.49,1.38-9.75,1.38-5.79,0-11.27-1.13-16.44-3.38-5.17-2.25-9.81-5.32-13.89-9.21-.41-.41-.61-.78-.61-1.13,0-.41,.17-.8,.51-1.18,.34-.37,.75-.56,1.23-.56,.34,0,.68,.17,1.02,.51,4.23,3.55,8.61,6.39,13.15,8.54,4.54,2.15,9.63,3.22,15.29,3.22,2.86,0,5.71-.39,8.54-1.18,2.83-.78,5.39-1.98,7.67-3.58,2.28-1.6,4.13-3.6,5.53-5.99,1.4-2.39,2.1-5.18,2.1-8.39,0-2.59-.61-4.82-1.84-6.7-1.23-1.87-2.83-3.48-4.81-4.81-1.98-1.33-4.25-2.44-6.8-3.33-2.56-.89-5.13-1.65-7.72-2.3-2.59-.65-5.13-1.21-7.62-1.69-2.49-.48-4.66-.95-6.5-1.43-2.25-.61-4.42-1.45-6.5-2.51-2.08-1.06-3.91-2.37-5.47-3.94-1.57-1.57-2.81-3.39-3.73-5.47-.92-2.08-1.38-4.42-1.38-7.01,0-3.48,.8-6.5,2.4-9.05,1.6-2.56,3.68-4.67,6.24-6.34,2.56-1.67,5.39-2.93,8.49-3.79,3.1-.85,6.15-1.28,9.16-1.28,1.91,0,4.07,.2,6.5,.59,2.42,.4,4.84,.98,7.26,1.74,2.42,.76,4.69,1.69,6.8,2.78,2.11,1.09,3.89,2.32,5.32,3.68,.2,.2,.36,.38,.46,.51,.1,.14,.15,.38,.15,.72,0,.41-.17,.78-.51,1.13s-.72,.51-1.13,.51c-.14,0-.39-.1-.77-.31-.38-.2-.78-.46-1.23-.77-.44-.31-.85-.58-1.23-.82-.38-.24-.67-.43-.87-.56-3.07-1.84-6.34-3.31-9.82-4.4-3.48-1.09-7.06-1.64-10.74-1.64-2.59,0-5.25,.32-7.98,.97-2.73,.65-5.24,1.66-7.52,3.02-2.29,1.37-4.16,3.12-5.63,5.28-1.47,2.15-2.2,4.73-2.2,7.73,0,3.28,.75,5.96,2.25,8.04s3.47,3.79,5.92,5.12,5.24,2.41,8.37,3.23c3.13,.82,6.35,1.61,9.65,2.36,3.3,.75,6.52,1.57,9.65,2.46,3.13,.89,5.92,2.1,8.37,3.64,2.45,1.54,4.43,3.48,5.92,5.84,1.5,2.35,2.25,5.38,2.25,9.06Z"/>
                <path class="e"
                      d="M624.5,515.01c0,.42-.15,.79-.46,1.11s-.67,.47-1.07,.47h-50.34c-.41,0-.77-.16-1.07-.47s-.46-.69-.46-1.11,.15-.79,.46-1.11,.67-.48,1.07-.48h50.34c.41,0,.77,.16,1.07,.48s.46,.69,.46,1.11Zm.41,9.87c0,.41-.15,.78-.46,1.13-.31,.34-.67,.51-1.07,.51h-23.74v67.22c0,.41-.17,.77-.5,1.07-.33,.31-.69,.46-1.09,.46s-.76-.14-1.09-.41c-.33-.27-.5-.65-.5-1.13v-67.22h-23.84c-.41,0-.77-.17-1.07-.51-.31-.34-.46-.72-.46-1.13s.14-.8,.41-1.18c.27-.37,.65-.56,1.13-.56h50.75c.48,0,.85,.19,1.13,.56,.27,.38,.41,.77,.41,1.18Z"/>
                <path class="e"
                      d="M695.3,593.54c0,.41-.14,.8-.41,1.18-.27,.38-.65,.56-1.13,.56h-50.18c-.49,0-.9-.17-1.22-.51-.32-.34-.47-.75-.47-1.23v-78.58c0-.48,.18-.85,.53-1.13,.35-.27,.74-.41,1.16-.41h50.18c.41,0,.77,.16,1.07,.48s.46,.69,.46,1.11-.15,.79-.46,1.11-.67,.47-1.07,.47h-48.7v31.61h37.96c.41,0,.77,.16,1.07,.48s.46,.69,.46,1.11-.15,.79-.46,1.11-.67,.47-1.07,.47h-37.75l-.1,7.06h38.26c1.09,0,1.64,.53,1.64,1.59,0,.4-.17,.76-.51,1.09-.34,.33-.72,.5-1.13,.5h-38.37v30.18h48.7c.41,0,.77,.19,1.07,.56,.31,.38,.46,.77,.46,1.18Z"/>
                <path class="e"
                      d="M757.4,531.64c0,2.39-.41,4.66-1.23,6.8s-1.94,4.04-3.38,5.68c-1.43,1.64-3.16,3-5.17,4.09-2.01,1.09-4.21,1.81-6.6,2.15-.34,.07-.7,.1-1.07,.1h-18.88l-.1,6.86h18.72c.61,0,1.09,.31,1.43,.92,.2,.55,.75,1.77,1.64,3.68,.89,1.91,1.93,4.16,3.12,6.75,1.19,2.59,2.46,5.32,3.79,8.19,1.33,2.86,2.56,5.53,3.68,7.98,1.13,2.46,2.06,4.52,2.81,6.19,.75,1.67,1.13,2.61,1.13,2.81,0,.48-.17,.84-.51,1.07-.34,.24-.72,.36-1.13,.36-.68,0-1.16-.31-1.43-.92l-15.55-33.86h-18.01v32.74c0,.48-.17,.85-.51,1.13-.34,.27-.72,.41-1.13,.41s-.77-.15-1.07-.46-.46-.67-.46-1.07v-76.63h-6.65v77.15c0,.48-.17,.85-.51,1.13-.34,.27-.72,.41-1.13,.41s-.77-.15-1.07-.46-.46-.67-.46-1.07v-78.78c0-1.02,.51-1.53,1.53-1.53h29.67c2.59,0,5.01,.46,7.26,1.38,2.25,.92,4.21,2.2,5.88,3.84,1.67,1.64,2.98,3.57,3.94,5.78,.95,2.22,1.43,4.62,1.43,7.21Zm-3.17,.05c0-2.11-.41-4.08-1.23-5.91s-1.93-3.43-3.33-4.79c-1.4-1.36-3.02-2.43-4.86-3.21-1.84-.78-3.82-1.17-5.93-1.17h-18.21v30.69h18.21c2.11,0,4.11-.41,5.99-1.22,1.88-.82,3.51-1.94,4.91-3.37,1.4-1.43,2.49-3.08,3.27-4.95,.78-1.87,1.18-3.89,1.18-6.07Z"/>
            </g>
        </g>
    </g>
    <g id="b"/>
    <g id="c">
        <g>
            <path class="d"
                  d="M135.26,9.38h7.84l-21.04,51.97-10.45-25.98-10.52,25.98L80.04,9.38h7.84l13.2,32.48,6.57-16.17-6.57-16.31h7.77l2.75,6.64,3.88,9.67,6.57,16.17,13.2-32.48Z"/>
            <path class="d" d="M161.74,53.65h23.02v7.41h-30.5V9.52h30.01v7.27h-22.52v17.51h20.27v7.06h-20.27v12.29Z"/>
            <path class="d"
                  d="M224.3,33.81c2.07,1.13,3.73,2.77,4.98,4.91,1.25,2.14,1.87,4.58,1.87,7.31,0,2.07-.4,4.02-1.2,5.86-.8,1.84-1.88,3.45-3.25,4.84-1.37,1.39-2.97,2.48-4.8,3.28-1.84,.8-3.79,1.2-5.86,1.2h-20.12V9.45h19.77c1.88,0,3.67,.37,5.37,1.09,1.69,.73,3.18,1.73,4.45,3s2.27,2.75,3,4.45c.73,1.69,1.09,3.51,1.09,5.44,0,1.18-.15,2.27-.46,3.28-.31,1.01-.71,1.94-1.2,2.79-.49,.85-1.06,1.64-1.69,2.37-.64,.73-1.28,1.38-1.94,1.94Zm-20.83-2.97h10.94c1.03,0,2-.19,2.9-.56,.89-.38,1.67-.91,2.33-1.59,.66-.68,1.18-1.47,1.55-2.37,.38-.89,.56-1.84,.56-2.82,0-2.12-.71-3.88-2.12-5.3s-3.15-2.12-5.23-2.12h-10.94v14.76Zm11.3,23.73c1.18,0,2.28-.24,3.32-.71,1.04-.47,1.94-1.09,2.72-1.87,.78-.78,1.39-1.68,1.84-2.72,.45-1.03,.67-2.12,.67-3.25s-.22-2.28-.67-3.32c-.45-1.03-1.06-1.94-1.84-2.72s-1.68-1.39-2.72-1.84c-1.04-.45-2.14-.67-3.32-.67h-11.3v17.09h11.3Z"/>
            <path class="d"
                  d="M270.69,35.44c.33,.24,.64,.51,.92,.81,.28,.31,.54,.6,.78,.88,1.08,1.37,1.93,2.86,2.54,4.48,.61,1.62,.92,3.33,.92,5.12,0,.42-.02,.75-.07,.99-.14,2.64-.94,5.01-2.4,7.13-1.32,1.98-3.01,3.54-5.08,4.7-2.07,1.15-4.38,1.73-6.92,1.73h-4.66c-2.54,0-4.85-.58-6.92-1.73-2.07-1.15-3.77-2.72-5.08-4.7-.38-.56-.75-1.22-1.13-1.98l6.57-5.08c.14,.9,.43,1.73,.88,2.51,.45,.78,1,1.46,1.66,2.05,.66,.59,1.41,1.05,2.26,1.38,.85,.33,1.74,.49,2.68,.49h2.82c1.93,0,3.6-.62,5.01-1.87,1.41-1.25,2.26-2.79,2.54-4.62,0-.19,.01-.38,.04-.56,.02-.19,.04-.38,.04-.56,0-1.04-.19-2-.56-2.9-.38-.89-.9-1.68-1.55-2.37-.66-.68-1.44-1.24-2.33-1.66-.89-.42-1.84-.66-2.82-.71h-4.31c-1.74-.05-3.38-.39-4.91-1.02-1.53-.64-2.91-1.49-4.13-2.58-.66-.47-1.22-1.03-1.69-1.69-1.08-1.36-1.93-2.86-2.54-4.48-.61-1.62-.92-3.33-.92-5.12v-.99c.23-2.68,1.06-5.06,2.47-7.13,1.32-1.98,3.01-3.54,5.08-4.7,2.07-1.15,4.38-1.73,6.92-1.73h4.59c2.54,0,4.86,.58,6.96,1.73,2.09,1.15,3.8,2.72,5.12,4.7,.14,.24,.29,.49,.46,.78,.16,.28,.32,.54,.46,.78l-6.43,5.01c-.42-1.69-1.32-3.11-2.68-4.24-1.37-1.13-2.94-1.69-4.73-1.69h-2.82c-.94,0-1.85,.17-2.72,.49-.87,.33-1.64,.79-2.29,1.38-.66,.59-1.21,1.28-1.66,2.08-.45,.8-.74,1.65-.88,2.54-.05,.19-.07,.38-.07,.56v.56c0,1.04,.19,2,.56,2.9,.38,.89,.89,1.68,1.55,2.37,.66,.68,1.44,1.24,2.33,1.66,.89,.42,1.84,.66,2.82,.71h4.31c1.74,.05,3.38,.39,4.91,1.02,1.53,.64,2.91,1.5,4.13,2.58Z"/>
            <path class="d" d="M287,9.45h7.56V61.21h-7.56V9.45Z"/>
            <path class="d" d="M305.71,9.45h33.05v7.27h-12.78V61.14h-7.48V16.72h-12.78v-7.27Z"/>
            <path class="d" d="M357.4,53.65h23.02v7.41h-30.5V9.52h30.01v7.27h-22.52v17.51h20.27v7.06h-20.27v12.29Z"/>
            <path class="e" d="M470.44,9.45l9.6,51.83h-7.7l-5.01-28.74-13.91,29.66-13.84-29.66-5.01,28.74h-7.7l9.6-51.83,16.95,35.66,17.02-35.66Z"/>
            <path class="e" d="M491.2,61.14l21.11-51.76,21.11,51.76h-7.7l-1.55-4.1h-23.65l-1.62,4.1h-7.7Zm11.86-10.73h18.5l-9.25-23.73-9.25,23.73Z"/>
            <path class="e"
                  d="M562.66,9.45c3.48,0,6.74,.68,9.78,2.05,3.04,1.37,5.68,3.23,7.94,5.58,2.26,2.35,4.05,5.1,5.37,8.23,1.32,3.13,1.98,6.49,1.98,10.06s-.64,6.93-1.91,10.06c-1.27,3.13-3.03,5.86-5.26,8.19-2.24,2.33-4.88,4.18-7.94,5.54-3.06,1.37-6.38,2.05-9.96,2.05h-18.08V9.45h18.08Zm-.85,45.12c2.64,0,5.06-.51,7.27-1.52,2.21-1.01,4.12-2.39,5.72-4.14,1.6-1.75,2.85-3.78,3.74-6.12,.89-2.33,1.34-4.82,1.34-7.46s-.45-5.13-1.34-7.46c-.89-2.33-2.15-4.37-3.78-6.12s-3.54-3.12-5.75-4.14c-2.21-1.01-4.61-1.52-7.2-1.52h-9.67V54.57h9.67Z"/>
            <path class="e" d="M606.37,53.65h23.02v7.41h-30.5V9.52h30.01v7.27h-22.52v17.51h20.27v7.06h-20.27v12.29Z"/>
            <path class="e"
                  d="M704.23,33.81c2.07,1.13,3.73,2.77,4.98,4.91,1.25,2.14,1.87,4.58,1.87,7.31,0,2.07-.4,4.02-1.2,5.86-.8,1.84-1.88,3.45-3.25,4.84-1.37,1.39-2.97,2.48-4.8,3.28-1.84,.8-3.79,1.2-5.86,1.2h-20.12V9.45h19.77c1.88,0,3.67,.37,5.37,1.09,1.69,.73,3.18,1.73,4.45,3s2.27,2.75,3,4.45c.73,1.69,1.09,3.51,1.09,5.44,0,1.18-.15,2.27-.46,3.28-.31,1.01-.71,1.94-1.2,2.79-.49,.85-1.06,1.64-1.69,2.37-.64,.73-1.28,1.38-1.94,1.94Zm-20.83-2.97h10.94c1.03,0,2-.19,2.9-.56,.89-.38,1.67-.91,2.33-1.59,.66-.68,1.18-1.47,1.55-2.37,.38-.89,.56-1.84,.56-2.82,0-2.12-.71-3.88-2.12-5.3s-3.15-2.12-5.23-2.12h-10.94v14.76Zm11.3,23.73c1.18,0,2.28-.24,3.32-.71,1.04-.47,1.94-1.09,2.72-1.87,.78-.78,1.39-1.68,1.84-2.72,.45-1.03,.67-2.12,.67-3.25s-.22-2.28-.67-3.32c-.45-1.03-1.06-1.94-1.84-2.72s-1.68-1.39-2.72-1.84c-1.04-.45-2.14-.67-3.32-.67h-11.3v17.09h11.3Z"/>
            <path class="e" d="M761.85,9.38v.07l-16.03,34.88v17.02h-7.56v-17.02l-16.03-34.88h.07l-.07-.07h8.4l11.44,27.68,11.44-27.68h8.33Z"/>
        </g>
    </g>
</svg>