<svg enable-background="new 0 0 147.2 200" viewBox="0 0 147.2 200" xmlns="http://www.w3.org/2000/svg" xmlns:xlink="http://www.w3.org/1999/xlink"><clipPath id="a"><path d="m98.5 84.8h-60.4l6.3-34.8c.4-2.1 2.5-3.8 4.6-3.8h57c2.1 0 3.5 1.7 3.1 3.8l-6 30.9c-.4 2.2-2.5 3.9-4.6 3.9z"/></clipPath><clipPath id="b"><path d="m81.1 148h-40.1c-2.1 0-3.6-1.7-3.2-3.9l8.5-51c.4-2.1 2.4-3.9 4.5-3.9h40.2c2.1 0 3.6 1.7 3.2 3.9l-8.5 51c-.4 2.1-2.4 3.9-4.6 3.9z"/></clipPath><clipPath id="c"><path d="m133.8 148h-40.1c-2.1 0-3.6-1.7-3.2-3.9l8.5-51c.4-2.1 2.4-3.9 4.5-3.9h40.2c2.1 0 3.6 1.7 3.2 3.9l-8.5 51c-.4 2.1-2.4 3.9-4.6 3.9z"/></clipPath><path d="m100.2 200h-64.2c-5.2 0-8.7-4.2-7.8-9.4l25.8-152.5c.9-5.2 5.8-9.4 11-9.4h64.2c5.2 0 8.7 4.2 7.8 9.4l-25.8 152.4c-.9 5.3-5.8 9.5-11 9.5z" fill="#5ca4e6"/><path d="m92.1 200h-64.1c-5.2 0-8.7-4.2-7.8-9.4l25.8-152.5c.9-5.2 5.8-9.4 11-9.4h64.2c5.2 0 8.7 4.2 7.8 9.4l-25.8 152.4c-.9 5.3-5.9 9.5-11.1 9.5z" fill="#d1e8f7"/><path d="m92.5 194.9h-63.2c-2.7 0-4.5-2.2-4.1-4.9l25.7-151.3c.5-2.7 3-4.9 5.7-4.9h63.2c2.7 0 4.5 2.2 4.1 4.9l-25.7 151.3c-.4 2.7-3 4.9-5.7 4.9z" fill="#fff"/><path clip-path="url(#a)" d="m70.3 46.2-32.2 1.8v-1.8z" fill="#fff"/><path clip-path="url(#a)" d="m83.4 46.2-45.3 2.6v-.8l32.2-1.8z" fill="#fff"/><path clip-path="url(#a)" d="m96.6 46.2-58.5 3.4v-.8l45.3-2.6z" fill="#fefeff"/><path clip-path="url(#a)" d="m109.5 46.2-71.4 4.2v-.8l58.5-3.4z" fill="#fdfeff"/><path clip-path="url(#a)" d="m109.5 46.9-71.4 4.2v-.7l71.4-4.2z" fill="#fcfdff"/><path clip-path="url(#a)" d="m109.5 47.7-71.4 4.2v-.8l71.4-4.2z" fill="#fbfcff"/><path clip-path="url(#a)" d="m109.5 48.5-71.4 4.2v-.8l71.4-4.2z" fill="#fafcff"/><path clip-path="url(#a)" d="m109.5 49.3-71.4 4.2v-.8l71.4-4.2z" fill="#f9fbff"/><path clip-path="url(#a)" d="m109.5 50-71.4 4.2v-.7l71.4-4.2z" fill="#f8faff"/><path clip-path="url(#a)" d="m109.5 50.8-71.4 4.2v-.8l71.4-4.2z" fill="#f7faff"/><path clip-path="url(#a)" d="m109.5 51.6-71.4 4.2v-.8l71.4-4.2z" fill="#f6f9ff"/><path clip-path="url(#a)" d="m109.5 52.4-71.4 4.2v-.8l71.4-4.2z" fill="#f5f8ff"/><path clip-path="url(#a)" d="m109.5 53.1-71.4 4.2v-.7l71.4-4.2z" fill="#f4f8ff"/><path clip-path="url(#a)" d="m109.5 53.9-71.4 4.2v-.8l71.4-4.2z" fill="#f3f7ff"/><path clip-path="url(#a)" d="m109.5 54.7-71.4 4.2v-.8l71.4-4.2z" fill="#f2f6ff"/><path clip-path="url(#a)" d="m109.5 55.5-71.4 4.2v-.8l71.4-4.2z" fill="#f1f6ff"/><path clip-path="url(#a)" d="m109.5 56.2-71.4 4.2v-.7l71.4-4.2z" fill="#f0f5ff"/><path clip-path="url(#a)" d="m109.5 57-71.4 4.2v-.8l71.4-4.2z" fill="#eff4ff"/><path clip-path="url(#a)" d="m109.5 57.8-71.4 4.2v-.8l71.4-4.2z" fill="#eef4ff"/><path clip-path="url(#a)" d="m109.5 58.6-71.4 4.2v-.8l71.4-4.2z" fill="#edf3ff"/><path clip-path="url(#a)" d="m109.5 59.3-71.4 4.2v-.7l71.4-4.2z" fill="#ecf2ff"/><path clip-path="url(#a)" d="m109.5 60.1-71.4 4.2v-.8l71.4-4.2z" fill="#ebf2ff"/><path clip-path="url(#a)" d="m109.5 60.9-71.4 4.2v-.8l71.4-4.2z" fill="#eaf1ff"/><path clip-path="url(#a)" d="m109.5 61.7-71.4 4.2v-.8l71.4-4.2z" fill="#e9f0ff"/><path clip-path="url(#a)" d="m109.5 62.4-71.4 4.2v-.7l71.4-4.2z" fill="#e8f0ff"/><path clip-path="url(#a)" d="m109.5 63.2-71.4 4.2v-.8l71.4-4.2z" fill="#e7efff"/><path clip-path="url(#a)" d="m109.5 64-71.4 4.2v-.8l71.4-4.2z" fill="#e6eeff"/><path clip-path="url(#a)" d="m109.5 64.8-71.4 4.2v-.8l71.4-4.2z" fill="#e5eeff"/><path clip-path="url(#a)" d="m109.5 65.5-71.4 4.2v-.7l71.4-4.2z" fill="#e4edff"/><path clip-path="url(#a)" d="m109.5 66.3-71.4 4.2v-.8l71.4-4.2z" fill="#e3edff"/><path clip-path="url(#a)" d="m109.5 67.1-71.4 4.2v-.8l71.4-4.2z" fill="#e2ecff"/><path clip-path="url(#a)" d="m109.5 67.8-71.4 4.3v-.8l71.4-4.2z" fill="#e1ebff"/><path clip-path="url(#a)" d="m109.5 68.6-71.4 4.2v-.7l71.4-4.3z" fill="#e0ebff"/><path clip-path="url(#a)" d="m109.5 69.4-71.4 4.2v-.8l71.4-4.2z" fill="#dfeaff"/><path clip-path="url(#a)" d="m109.5 70.2-71.4 4.2v-.8l71.4-4.2z" fill="#dee9ff"/><path clip-path="url(#a)" d="m109.5 70.9-71.4 4.3v-.8l71.4-4.2z" fill="#dde9ff"/><path clip-path="url(#a)" d="m109.5 71.7-71.4 4.2v-.7l71.4-4.3z" fill="#dce8ff"/><path clip-path="url(#a)" d="m109.5 72.5-71.4 4.2v-.8l71.4-4.2z" fill="#dbe7ff"/><path clip-path="url(#a)" d="m109.5 73.3-71.4 4.2v-.8l71.4-4.2z" fill="#dae7ff"/><path clip-path="url(#a)" d="m109.5 74-71.4 4.3v-.8l71.4-4.2z" fill="#d9e6ff"/><path clip-path="url(#a)" d="m109.5 74.8-71.4 4.2v-.7l71.4-4.3z" fill="#d8e5ff"/><path clip-path="url(#a)" d="m109.5 75.6-71.4 4.2v-.8l71.4-4.2z" fill="#d7e5ff"/><path clip-path="url(#a)" d="m109.5 76.4-71.4 4.2v-.8l71.4-4.2z" fill="#d6e4ff"/><path clip-path="url(#a)" d="m109.5 77.1-71.4 4.3v-.8l71.4-4.2z" fill="#d5e3ff"/><path clip-path="url(#a)" d="m109.5 77.9-71.4 4.2v-.7l71.4-4.3z" fill="#d4e3ff"/><path clip-path="url(#a)" d="m109.5 78.7-71.4 4.2v-.8l71.4-4.2z" fill="#d3e2ff"/><path clip-path="url(#a)" d="m109.5 79.5-71.4 4.2v-.8l71.4-4.2z" fill="#d2e1ff"/><path clip-path="url(#a)" d="m109.5 80.2-71.4 4.2v-.7l71.4-4.2z" fill="#d1e1ff"/><path clip-path="url(#a)" d="m109.5 81-63.9 3.8h-7.5v-.4l71.4-4.2z" fill="#d0e0ff"/><path clip-path="url(#a)" d="m109.5 81.8-50.8 3h-13.1l63.9-3.8z" fill="#cfdfff"/><path clip-path="url(#a)" d="m109.5 82.6-37.6 2.2h-13.2l50.8-3z" fill="#cedfff"/><path clip-path="url(#a)" d="m109.5 83.3-24.5 1.5h-13.1l37.6-2.2z" fill="#cddeff"/><path clip-path="url(#a)" d="m109.5 84.1-11.3.7h-13.2l24.5-1.5z" fill="#cdf"/><path clip-path="url(#a)" d="m98.2 84.8 11.3-.7v.7z" fill="#cbddff"/><path d="m93.6 80.3h-90.4c-2.1 0-3.5-1.7-3.1-3.8l6-30.9c.4-2.1 2.5-3.8 4.6-3.8h90.5c2.1 0 3.5 1.7 3.1 3.8l-6 30.9c-.5 2.1-2.6 3.8-4.7 3.8z" fill="#febb94"/><path d="m87.8 191-56.1.3c-2.1 0-3.5-1.7-3.1-3.8l6-30.9c.4-2.1 2.5-3.8 4.6-3.8l56.1-.3c2.1 0 3.5 1.7 3.1 3.8l-6 30.9c-.4 2-2.4 3.8-4.6 3.8z" fill="#febb94"/><path d="m85.1 183.8c-.1 0-.2 0-.3 0-1.2-.2-2.1-1.3-1.9-2.5.7-5.3-.8-10.2-4.1-14-3.5-4-8.6-6.2-14.5-6.2-11.9 0-22.9 9.3-24.3 20.7-.2 1.2-1.3 2.1-2.5 1.9s-2.1-1.3-1.9-2.5c.8-6.6 4.3-12.8 9.7-17.4s12.1-7.1 19-7.1c7.1 0 13.4 2.7 17.8 7.7 4.2 4.7 6 10.9 5.1 17.4 0 1.2-1 2-2.1 2z" fill="#ff967c"/><path d="m37.9 183.8c-.1 0-.2 0-.3 0-1.2-.2-2.1-1.3-1.9-2.5.8-6.6 4.3-12.8 9.7-17.4s12.1-7.1 19-7.1 13 2.6 17.3 7.2c.8.9.8 2.3-.1 3.1s-2.3.8-3.1-.1c-3.5-3.7-8.5-5.8-14.1-5.8-11.9 0-22.9 9.3-24.3 20.7-.1 1.1-1.1 1.9-2.2 1.9z" fill="#fff"/><path clip-path="url(#b)" d="m42.7 89.2-5.3.7v-.7z" fill="#f4f8ff"/><path clip-path="url(#b)" d="m52.3 89.2-14.9 2.1v-1.4l5.3-.7z" fill="#f3f7ff"/><path clip-path="url(#b)" d="m61.8 89.2-24.4 3.4v-1.3l14.9-2.1z" fill="#f2f6ff"/><path clip-path="url(#b)" d="m71.3 89.2-33.9 4.8v-1.4l24.4-3.4z" fill="#f1f6ff"/><path clip-path="url(#b)" d="m80.9 89.2-43.5 6.2v-1.4l33.9-4.8z" fill="#f0f5ff"/><path clip-path="url(#b)" d="m90.4 89.2-53 7.5v-1.3l43.5-6.2z" fill="#eff4ff"/><path clip-path="url(#b)" d="m94.5 89.9-57.1 8.2v-1.4l53-7.5h4.1z" fill="#eef4ff"/><path clip-path="url(#b)" d="m94.5 91.3-57.1 8.1v-1.3l57.1-8.2z" fill="#edf3ff"/><path clip-path="url(#b)" d="m94.5 92.7-57.1 8.1v-1.4l57.1-8.1z" fill="#ecf2ff"/><path clip-path="url(#b)" d="m94.5 94-57.1 8.2v-1.4l57.1-8.1z" fill="#ebf2ff"/><path clip-path="url(#b)" d="m94.5 95.4-57.1 8.1v-1.3l57.1-8.2z" fill="#eaf1ff"/><path clip-path="url(#b)" d="m94.5 96.7-57.1 8.2v-1.4l57.1-8.1z" fill="#e9f0ff"/><path clip-path="url(#b)" d="m94.5 98.1-57.1 8.2v-1.4l57.1-8.2z" fill="#e8f0ff"/><path clip-path="url(#b)" d="m94.5 99.5-57.1 8.1v-1.3l57.1-8.2z" fill="#e7efff"/><path clip-path="url(#b)" d="m94.5 100.8-57.1 8.2v-1.4l57.1-8.1z" fill="#e6eeff"/><path clip-path="url(#b)" d="m94.5 102.2-57.1 8.1v-1.3l57.1-8.2z" fill="#e5eeff"/><path clip-path="url(#b)" d="m94.5 103.5-57.1 8.2v-1.4l57.1-8.1z" fill="#e4edff"/><path clip-path="url(#b)" d="m94.5 104.9-57.1 8.2v-1.4l57.1-8.2z" fill="#e3edff"/><path clip-path="url(#b)" d="m94.5 106.3-57.1 8.1v-1.3l57.1-8.2z" fill="#e2ecff"/><path clip-path="url(#b)" d="m94.5 107.6-57.1 8.2v-1.4l57.1-8.1z" fill="#e1ebff"/><path clip-path="url(#b)" d="m94.5 109-57.1 8.1v-1.3l57.1-8.2z" fill="#e0ebff"/><path clip-path="url(#b)" d="m94.5 110.3-57.1 8.2v-1.4l57.1-8.1z" fill="#dfeaff"/><path clip-path="url(#b)" d="m94.5 111.7-57.1 8.2v-1.4l57.1-8.2z" fill="#dee9ff"/><path clip-path="url(#b)" d="m94.5 113.1-57.1 8.1v-1.3l57.1-8.2z" fill="#dde9ff"/><path clip-path="url(#b)" d="m94.5 114.4-57.1 8.2v-1.4l57.1-8.1z" fill="#dce8ff"/><path clip-path="url(#b)" d="m94.5 115.8-57.1 8.1v-1.3l57.1-8.2z" fill="#dbe7ff"/><path clip-path="url(#b)" d="m94.5 117.2-57.1 8.1v-1.4l57.1-8.1z" fill="#dae7ff"/><path clip-path="url(#b)" d="m94.5 118.5-57.1 8.2v-1.4l57.1-8.1z" fill="#d9e6ff"/><path clip-path="url(#b)" d="m94.5 119.9-57.1 8.1v-1.3l57.1-8.2z" fill="#d8e5ff"/><path clip-path="url(#b)" d="m94.5 121.2-57.1 8.2v-1.4l57.1-8.1z" fill="#d7e5ff"/><path clip-path="url(#b)" d="m94.5 122.6-57.1 8.1v-1.3l57.1-8.2z" fill="#d6e4ff"/><path clip-path="url(#b)" d="m94.5 124-57.1 8.1v-1.4l57.1-8.1z" fill="#d5e3ff"/><path clip-path="url(#b)" d="m94.5 125.3-57.1 8.2v-1.4l57.1-8.1z" fill="#d4e3ff"/><path clip-path="url(#b)" d="m94.5 126.7-57.1 8.1v-1.3l57.1-8.2z" fill="#d3e2ff"/><path clip-path="url(#b)" d="m94.5 128-57.1 8.2v-1.4l57.1-8.1z" fill="#d2e1ff"/><path clip-path="url(#b)" d="m94.5 129.4-57.1 8.1v-1.3l57.1-8.2z" fill="#d1e1ff"/><path clip-path="url(#b)" d="m94.5 130.8-57.1 8.1v-1.4l57.1-8.1z" fill="#d0e0ff"/><path clip-path="url(#b)" d="m94.5 132.1-57.1 8.2v-1.4l57.1-8.1z" fill="#cfdfff"/><path clip-path="url(#b)" d="m94.5 133.5-57.1 8.1v-1.3l57.1-8.2z" fill="#cedfff"/><path clip-path="url(#b)" d="m94.5 134.8-57.1 8.2v-1.4l57.1-8.1z" fill="#cddeff"/><path clip-path="url(#b)" d="m94.5 136.2-57.1 8.2v-1.4l57.1-8.2z" fill="#cdf"/><path clip-path="url(#b)" d="m94.5 137.6-57.1 8.1v-1.3l57.1-8.2z" fill="#cbddff"/><path clip-path="url(#b)" d="m94.5 138.9-57.1 8.2v-1.4l57.1-8.1z" fill="#cadcff"/><path clip-path="url(#b)" d="m94.5 140.3-53.7 7.7h-3.4v-.9l57.1-8.2z" fill="#c8dbff"/><path clip-path="url(#b)" d="m94.5 141.6-44.2 6.4h-9.5l53.7-7.7z" fill="#c7dbff"/><path clip-path="url(#b)" d="m94.5 143-34.7 5h-9.5l44.2-6.4z" fill="#c6daff"/><path clip-path="url(#b)" d="m94.5 144.4-25.1 3.6h-9.6l34.7-5z" fill="#c5d9ff"/><path clip-path="url(#b)" d="m94.5 145.7-15.6 2.3h-9.5l25.1-3.6z" fill="#c4d9ff"/><path clip-path="url(#b)" d="m94.5 147.1-6.1.9h-9.5l15.6-2.3z" fill="#c3d8ff"/><path clip-path="url(#b)" d="m88.4 148 6.1-.9v.9z" fill="#c2d7ff"/><g fill="#fff"><path d="m53.3 116.1h-5.5c-.3 0-.6.1-.8.3s-.4.5-.4.8l-3 17.9v.4c0 .1.1.3.2.4s.2.2.3.2c.1.1.3.1.4.1h5.5c.3 0 .6-.1.8-.3s.4-.5.4-.8l3-17.9c0-.1 0-.3 0-.4s-.1-.3-.2-.4-.2-.2-.3-.2-.2-.1-.4-.1z"/><path d="m63.3 122.3h-5.5c-.3 0-.6.1-.8.3s-.4.5-.4.8l-2 11.8v.4c0 .1.1.3.2.4s.2.2.3.2c.1.1.3.1.4.1h5.5c.3 0 .6-.1.8-.3s.4-.5.4-.8l2-11.8c0-.1 0-.3 0-.4s-.1-.3-.2-.4-.2-.2-.3-.2c-.1-.1-.2-.1-.4-.1z"/><path d="m76.6 105h-5.5c-.3 0-.6.1-.8.3s-.4.5-.4.8l-4.8 29v.4c0 .1.1.3.2.4s.2.2.3.2c.1.1.3.1.4.1h5.5c.3 0 .6-.1.8-.3s.4-.5.4-.8l4.8-29c0-.1 0-.3 0-.4s-.1-.3-.2-.4-.2-.2-.3-.2c-.2 0-.3-.1-.4-.1z"/><path d="m86 112.6h-5.5c-.3 0-.6.1-.8.3s-.4.5-.4.8l-3.6 21.5v.4c0 .1.1.3.2.4s.2.2.3.2c.1.1.3.1.4.1h5.5c.3 0 .6-.1.8-.3s.4-.5.4-.8l3.6-21.5c0-.1 0-.3 0-.4s-.1-.3-.2-.4-.2-.2-.3-.2c-.1-.1-.3-.1-.4-.1z"/><path d="m65.1 96.8h-14.9c-.7 0-1.3-.6-1.3-1.3s.6-1.3 1.3-1.3h14.8c.7 0 1.3.6 1.3 1.3s-.5 1.3-1.2 1.3z"/><path d="m56.8 101.8h-7.4c-.7 0-1.3-.6-1.3-1.3s.6-1.3 1.3-1.3h7.4c.7 0 1.3.6 1.3 1.3s-.6 1.3-1.3 1.3z"/><path d="m48.1 140.6h-2.9c-.4 0-.8-.4-.8-.8s.4-.8.8-.8h2.9c.4 0 .8.4.8.8s-.4.8-.8.8z" opacity=".6"/><path d="m59.1 140.6h-2.9c-.4 0-.8-.4-.8-.8s.4-.8.8-.8h2.9c.4 0 .8.4.8.8s-.4.8-.8.8z" opacity=".6"/><path d="m69.5 140.6h-2.9c-.4 0-.8-.4-.8-.8s.4-.8.8-.8h2.9c.4 0 .8.4.8.8s-.4.8-.8.8z" opacity=".6"/><path d="m80.1 140.6h-2.9c-.4 0-.8-.4-.8-.8s.4-.8.8-.8h2.9c.4 0 .8.4.8.8s-.3.8-.8.8z" opacity=".6"/></g><path clip-path="url(#c)" d="m95.4 89.2-5.3.7v-.7z" fill="#f4f8ff"/><path clip-path="url(#c)" d="m105 89.2-14.9 2.1v-1.4l5.3-.7z" fill="#f3f7ff"/><path clip-path="url(#c)" d="m114.5 89.2-24.4 3.4v-1.3l14.9-2.1z" fill="#f2f6ff"/><path clip-path="url(#c)" d="m124 89.2-33.9 4.8v-1.4l24.4-3.4z" fill="#f1f6ff"/><path clip-path="url(#c)" d="m133.6 89.2-43.5 6.2v-1.4l33.9-4.8z" fill="#f0f5ff"/><path clip-path="url(#c)" d="m143.1 89.2-53 7.5v-1.3l43.5-6.2z" fill="#eff4ff"/><path clip-path="url(#c)" d="m147.2 89.9-57.1 8.2v-1.4l53-7.5h4.1z" fill="#eef4ff"/><path clip-path="url(#c)" d="m147.2 91.3-57.1 8.1v-1.3l57.1-8.2z" fill="#edf3ff"/><path clip-path="url(#c)" d="m147.2 92.7-57.1 8.1v-1.4l57.1-8.1z" fill="#ecf2ff"/><path clip-path="url(#c)" d="m147.2 94-57.1 8.2v-1.4l57.1-8.1z" fill="#ebf2ff"/><path clip-path="url(#c)" d="m147.2 95.4-57.1 8.1v-1.3l57.1-8.2z" fill="#eaf1ff"/><path clip-path="url(#c)" d="m147.2 96.7-57.1 8.2v-1.4l57.1-8.1z" fill="#e9f0ff"/><path clip-path="url(#c)" d="m147.2 98.1-57.1 8.2v-1.4l57.1-8.2z" fill="#e8f0ff"/><path clip-path="url(#c)" d="m147.2 99.5-57.1 8.1v-1.3l57.1-8.2z" fill="#e7efff"/><path clip-path="url(#c)" d="m147.2 100.8-57.1 8.2v-1.4l57.1-8.1z" fill="#e6eeff"/><path clip-path="url(#c)" d="m147.2 102.2-57.1 8.1v-1.3l57.1-8.2z" fill="#e5eeff"/><path clip-path="url(#c)" d="m147.2 103.5-57.1 8.2v-1.4l57.1-8.1z" fill="#e4edff"/><path clip-path="url(#c)" d="m147.2 104.9-57.1 8.2v-1.4l57.1-8.2z" fill="#e3edff"/><path clip-path="url(#c)" d="m147.2 106.3-57.1 8.1v-1.3l57.1-8.2z" fill="#e2ecff"/><path clip-path="url(#c)" d="m147.2 107.6-57.1 8.2v-1.4l57.1-8.1z" fill="#e1ebff"/><path clip-path="url(#c)" d="m147.2 109-57.1 8.1v-1.3l57.1-8.2z" fill="#e0ebff"/><path clip-path="url(#c)" d="m147.2 110.3-57.1 8.2v-1.4l57.1-8.1z" fill="#dfeaff"/><path clip-path="url(#c)" d="m147.2 111.7-57.1 8.2v-1.4l57.1-8.2z" fill="#dee9ff"/><path clip-path="url(#c)" d="m147.2 113.1-57.1 8.1v-1.3l57.1-8.2z" fill="#dde9ff"/><path clip-path="url(#c)" d="m147.2 114.4-57.1 8.2v-1.4l57.1-8.1z" fill="#dce8ff"/><path clip-path="url(#c)" d="m147.2 115.8-57.1 8.1v-1.3l57.1-8.2z" fill="#dbe7ff"/><path clip-path="url(#c)" d="m147.2 117.2-57.1 8.1v-1.4l57.1-8.1z" fill="#dae7ff"/><path clip-path="url(#c)" d="m147.2 118.5-57.1 8.2v-1.4l57.1-8.1z" fill="#d9e6ff"/><path clip-path="url(#c)" d="m147.2 119.9-57.1 8.1v-1.3l57.1-8.2z" fill="#d8e5ff"/><path clip-path="url(#c)" d="m147.2 121.2-57.1 8.2v-1.4l57.1-8.1z" fill="#d7e5ff"/><path clip-path="url(#c)" d="m147.2 122.6-57.1 8.1v-1.3l57.1-8.2z" fill="#d6e4ff"/><path clip-path="url(#c)" d="m147.2 124-57.1 8.1v-1.4l57.1-8.1z" fill="#d5e3ff"/><path clip-path="url(#c)" d="m147.2 125.3-57.1 8.2v-1.4l57.1-8.1z" fill="#d4e3ff"/><path clip-path="url(#c)" d="m147.2 126.7-57.1 8.1v-1.3l57.1-8.2z" fill="#d3e2ff"/><path clip-path="url(#c)" d="m147.2 128-57.1 8.2v-1.4l57.1-8.1z" fill="#d2e1ff"/><path clip-path="url(#c)" d="m147.2 129.4-57.1 8.1v-1.3l57.1-8.2z" fill="#d1e1ff"/><path clip-path="url(#c)" d="m147.2 130.8-57.1 8.1v-1.4l57.1-8.1z" fill="#d0e0ff"/><path clip-path="url(#c)" d="m147.2 132.1-57.1 8.2v-1.4l57.1-8.1z" fill="#cfdfff"/><path clip-path="url(#c)" d="m147.2 133.5-57.1 8.1v-1.3l57.1-8.2z" fill="#cedfff"/><path clip-path="url(#c)" d="m147.2 134.8-57.1 8.2v-1.4l57.1-8.1z" fill="#cddeff"/><path clip-path="url(#c)" d="m147.2 136.2-57.1 8.2v-1.4l57.1-8.2z" fill="#cdf"/><path clip-path="url(#c)" d="m147.2 137.6-57.1 8.1v-1.3l57.1-8.2z" fill="#cbddff"/><path clip-path="url(#c)" d="m147.2 138.9-57.1 8.2v-1.4l57.1-8.1z" fill="#cadcff"/><path clip-path="url(#c)" d="m147.2 140.3-53.8 7.7h-3.3v-.9l57.1-8.2z" fill="#c8dbff"/><path clip-path="url(#c)" d="m147.2 141.6-44.2 6.4h-9.6l53.8-7.7z" fill="#c7dbff"/><path clip-path="url(#c)" d="m147.2 143-34.7 5h-9.5l44.2-6.4z" fill="#c6daff"/><path clip-path="url(#c)" d="m147.2 144.4-25.1 3.6h-9.6l34.7-5z" fill="#c5d9ff"/><path clip-path="url(#c)" d="m147.2 145.7-15.6 2.3h-9.5l25.1-3.6z" fill="#c4d9ff"/><path clip-path="url(#c)" d="m147.2 147.1-6.1.9h-9.5l15.6-2.3z" fill="#c3d8ff"/><path clip-path="url(#c)" d="m141.1 148 6.1-.9v.9z" fill="#c2d7ff"/><path d="m105 123.8h-5.5c-.3 0-.6.1-.8.3s-.4.5-.4.8l-1.9 10.2v.4c0 .1.1.3.2.4s.2.2.3.2c.1.1.3.1.4.1h5.5c.3 0 .6-.1.8-.3s.4-.5.4-.8l1.9-10.2c0-.1 0-.3 0-.4s-.1-.3-.2-.4-.2-.2-.3-.2-.3-.1-.4-.1z" fill="#fff"/><path d="m118.1 108h-5.5c-.3 0-.6.1-.8.3s-.4.5-.4.8l-4 26v.4c0 .1.1.3.2.4s.2.2.3.2c.1.1.3.1.4.1h5.5c.3 0 .6-.1.8-.3s.4-.5.4-.8l4-26c0-.1 0-.3 0-.4s-.1-.3-.2-.4-.2-.2-.3-.2-.3-.1-.4-.1z" fill="#fff"/><path d="m127.4 115.5h-5.4c-.3 0-.6.1-.8.3s-.4.5-.4.8l-3 18.6v.4c0 .1.1.3.2.4s.2.2.3.2c.1.1.3.1.4.1h5.5c.3 0 .6-.1.8-.3s.4-.5.4-.8l3-18.6c0-.1 0-.3 0-.4s-.1-.3-.2-.4-.2-.2-.3-.2c-.2-.1-.3-.1-.5-.1z" fill="#fff"/><path d="m138.7 112.6h-5.5c-.3 0-.6.1-.8.3s-.4.5-.4.8l-3.6 21.5v.4c0 .1.1.3.2.4s.2.2.3.2.3.1.4.1h5.5c.3 0 .6-.1.8-.3s.4-.5.4-.8l3.6-21.5c0-.1 0-.3 0-.4s-.1-.3-.2-.4-.2-.2-.3-.2c-.2-.1-.3-.1-.4-.1z" fill="#fff"/><path d="m117.7 96.8h-14.8c-.7 0-1.3-.6-1.3-1.3s.6-1.3 1.3-1.3h14.8c.7 0 1.3.6 1.3 1.3s-.5 1.3-1.3 1.3z" fill="#fff"/><path d="m109.5 101.8h-7.4c-.7 0-1.3-.6-1.3-1.3s.6-1.3 1.3-1.3h7.4c.7 0 1.3.6 1.3 1.3s-.6 1.3-1.3 1.3z" fill="#fff"/><path d="m100.8 140.6h-2.9c-.4 0-.8-.4-.8-.8s.4-.8.8-.8h2.9c.4 0 .8.4.8.8s-.4.8-.8.8z" fill="#fff" opacity=".6"/><path d="m111.8 140.6h-2.9c-.4 0-.8-.4-.8-.8s.4-.8.8-.8h2.9c.4 0 .8.4.8.8s-.4.8-.8.8z" fill="#fff" opacity=".6"/><path d="m122.2 140.6h-2.9c-.4 0-.8-.4-.8-.8s.4-.8.8-.8h2.9c.4 0 .8.4.8.8s-.4.8-.8.8z" fill="#fff" opacity=".6"/><path d="m84.3 74.8c-2.6-.1-3.4-2.9-4-5.4-.5-1.7-.9-3.5-1.8-3.5-1 0-1.3.5-1.9 1.6-.7 1.1-1.5 2.5-3.8 2.5-2.4-.1-3-2.4-3.5-4.3s-.9-3.1-2-3.1c-1.3 0-2.9 3-4.1 5.4-1.6 3-3 5.8-5 6.2-3.2.5-4.9-2.5-6.1-4.8-.3-.5-.6-1-.9-1.5-1-1.5-4.3-1.2-5.4-1-.4.1-.7-.2-.8-.5-.1-.4.2-.7.5-.8.2 0 5.1-1 6.8 1.6.3.5.6 1 .9 1.5 1.5 2.6 2.7 4.5 4.7 4.1 1.3-.2 2.7-3 4-5.5 1.6-3.1 3.2-6.1 5.3-6.1h.1c2.1.1 2.7 2.2 3.2 4.1.6 2.1 1 3.3 2.3 3.4 1.5 0 2-.8 2.6-1.8s1.3-2.2 3.1-2.2c1.9 0 2.5 2.3 3.1 4.5.7 2.6 1.3 4.4 2.7 4.4 1.2 0 2-2.1 2.9-4.3 1.2-3.1 2.7-7 6.3-6.9.4 0 .7.3.6.7 0 .4-.3.7-.7.6-2.7-.1-3.9 3-5.1 6-.9 2.6-1.8 5.1-4 5.1z" fill="#fff"/><path d="m21.8 74.1c-1.5 0-2.9-.3-4.3-.8-6.3-2.6-9.1-10.3-6.3-17.2s10.2-10.5 16.5-7.9c3.1 1.3 5.4 3.8 6.6 7.1 1.1 3.2 1 6.8-.3 10.1s-3.8 6-6.8 7.5c-1.8.8-3.6 1.2-5.4 1.2zm1.6-22.4c-3.3 0-6.7 2.3-8.2 6-1.9 4.7-.2 9.8 3.9 11.5 1.9.8 4.1.7 6.1-.3 2.1-1 3.8-2.9 4.7-5.2.9-2.3 1-4.8.2-7-.7-2.1-2.2-3.7-4.1-4.5-.8-.3-1.7-.5-2.6-.5z" fill="#ff967c"/><path d="m21.8 74.1c-1.5 0-2.9-.3-4.3-.8-6.3-2.6-9.1-10.3-6.3-17.2s10.2-10.5 16.5-7.9c1.1.5 1.7 1.7 1.2 2.9-.5 1.1-1.7 1.7-2.9 1.2-4.1-1.6-8.9.8-10.8 5.5s-.2 9.8 3.9 11.5c2.3.9 4.8.6 7.1-.9 1-.7 2.4-.4 3 .6.7 1 .4 2.4-.6 3-2.1 1.4-4.5 2.1-6.8 2.1z" fill="#fff"/><path d="m69.5 50.8h-20.4c-.7 0-1.3-.6-1.3-1.3s.6-1.3 1.3-1.3h20.5c.7 0 1.3.6 1.3 1.3s-.6 1.3-1.4 1.3z" fill="#fff"/><path d="m56.4 56.5h-8.3c-.7 0-1.3-.6-1.3-1.3s.6-1.3 1.3-1.3h8.3c.7 0 1.3.6 1.3 1.3.1.7-.5 1.3-1.3 1.3z" fill="#fff" opacity=".6"/><path d="m66.6 181.3h-6.3c-.4 0-.7-.3-.7-.7s.3-.7.7-.7h6.3c.4 0 .7.3.7.7s-.3.7-.7.7z" fill="#fff"/><path d="m64.7 184.1h-3.1c-.4 0-.7-.3-.7-.7s.3-.7.7-.7h3.1c.4 0 .7.3.7.7s-.3.7-.7.7z" fill="#fff" opacity=".5"/><path d="m56.2 176.1c-.3 0-.5-.1-.7-.4-.3-.4-.2-.9.2-1.2l4.8-3.4c.3-.2.7-.2 1 0l2.9 1.9 4-2.9c.4-.3.9-.2 1.2.2s.2.9-.2 1.2l-4.5 3.3c-.3.2-.7.2-1 0l-2.9-1.9-4.3 3c-.2.2-.4.2-.5.2z" fill="#fff"/><path d="m70.2 175.1c-.5 0-.9-.4-.9-.9v-3.9h-3.9c-.5 0-.9-.4-.9-.9s.4-.9.9-.9h4.8c.5 0 .9.4.9.9v4.7c0 .6-.4 1-.9 1z" fill="#fff"/><path d="m122.2 22.2h-18.6c-.2 0-.5 0-.7-.1s-.4-.2-.5-.4-.2-.4-.3-.6c0-.2 0-.5 0-.7l2.9-14.7c.1-.5.4-1 .8-1.3s.9-.5 1.4-.5h18.6c.2 0 .5 0 .7.1s.4.2.5.4.2.4.3.6v.7l-2.9 14.7c-.1.5-.4 1-.8 1.3s-.9.5-1.4.5z" fill="#1c85e8"/><path d="m109.4 7.8h12.4.3c.1 0 .2.1.2.2.1.1.1.1.1.2v.3l-.2.9c0 .1-.1.3-.2.4s-.2.2-.3.3l-6.8 3.3c-.1.1-.2.1-.3.1s-.2 0-.3-.1l-5.6-3.4c-.1-.1-.2-.2-.2-.3s-.1-.2 0-.4l.2-.8c0-.2.1-.4.3-.5 0-.1.2-.2.4-.2z" fill="#fff"/><path d="m108.8 11.2 5.3 3.3c.1 0 .2.1.2.1s.2 0 .2-.1l6.6-3.3c.4-.2.7 0 .6.4l-1 5.3c-.1.4-.3.7-.5.9-.3.2-.6.4-1 .4h-11.2c-.2 0-.3 0-.5-.1-.1-.1-.3-.2-.4-.3s-.2-.3-.2-.4c0-.2 0-.3 0-.5l1-5.3c0-.1 0-.2.1-.2.1-.1.1-.1.2-.2.1 0 .2-.1.2-.1.2 0 .3.1.4.1z" fill="#fff"/><path d="m126.4 7.7c2.1 0 3.8-1.7 3.8-3.8s-1.7-3.8-3.8-3.8-3.8 1.7-3.8 3.8c-.1 2.1 1.6 3.8 3.8 3.8z" fill="#ff967c"/></svg>