<svg viewBox="0 0 147.4 100" xmlns="http://www.w3.org/2000/svg" xmlns:xlink="http://www.w3.org/1999/xlink"><clipPath id="a"><path d="m140.3 0h-133.2c-3.9 0-7.1 3.2-7.1 7.1v85.9c0 3.9 3.2 7.1 7.1 7.1h133.3c3.9 0 7.1-3.2 7.1-7.1v-85.9c-.1-3.9-3.3-7.1-7.2-7.1z"/></clipPath><path d="m98 11.9h2.3v.3h-2.3z" fill="#5ca4e6"/><path clip-path="url(#a)" d="m13.2 0-13.2 1.2v-1.2z" fill="#f4f8ff"/><path clip-path="url(#a)" d="m38 0-38 3.5v-2.3l13.2-1.2z" fill="#f3f7ff"/><path clip-path="url(#a)" d="m62.9 0-62.9 5.9v-2.4l38-3.5z" fill="#f2f6ff"/><path clip-path="url(#a)" d="m87.8 0-87.8 8.2v-2.3l62.9-5.9z" fill="#f1f6ff"/><path clip-path="url(#a)" d="m112.7 0-112.7 10.5v-2.3l87.8-8.2z" fill="#f0f5ff"/><path clip-path="url(#a)" d="m137.5 0-137.5 12.8v-2.3l112.7-10.5z" fill="#eff4ff"/><path clip-path="url(#a)" d="m147.4 1.4-147.4 13.7v-2.3l137.5-12.8h9.9z" fill="#eef4ff"/><path clip-path="url(#a)" d="m147.4 3.7-147.4 13.7v-2.3l147.4-13.7z" fill="#edf3ff"/><path clip-path="url(#a)" d="m147.4 6-147.4 13.7v-2.3l147.4-13.7z" fill="#ecf2ff"/><path clip-path="url(#a)" d="m147.4 8.3-147.4 13.8v-2.4l147.4-13.7z" fill="#ebf2ff"/><path clip-path="url(#a)" d="m147.4 10.7-147.4 13.7v-2.3l147.4-13.8z" fill="#eaf1ff"/><path clip-path="url(#a)" d="m147.4 13-147.4 13.7v-2.3l147.4-13.7z" fill="#e9f0ff"/><path clip-path="url(#a)" d="m147.4 15.3-147.4 13.7v-2.3l147.4-13.7z" fill="#e8f0ff"/><path clip-path="url(#a)" d="m147.4 17.6-147.4 13.7v-2.3l147.4-13.7z" fill="#e7efff"/><path clip-path="url(#a)" d="m147.4 19.9-147.4 13.7v-2.3l147.4-13.7z" fill="#e6eeff"/><path clip-path="url(#a)" d="m147.4 22.2-147.4 13.7v-2.3l147.4-13.7z" fill="#e5eeff"/><path clip-path="url(#a)" d="m147.4 24.5-147.4 13.8v-2.4l147.4-13.7z" fill="#e4edff"/><path clip-path="url(#a)" d="m147.4 26.9-147.4 13.7v-2.3l147.4-13.8z" fill="#e3edff"/><path clip-path="url(#a)" d="m147.4 29.2-147.4 13.7v-2.3l147.4-13.7z" fill="#e2ecff"/><path clip-path="url(#a)" d="m147.4 31.5-147.4 13.7v-2.3l147.4-13.7z" fill="#e1ebff"/><path clip-path="url(#a)" d="m147.4 33.8-147.4 13.7v-2.3l147.4-13.7z" fill="#e0ebff"/><path clip-path="url(#a)" d="m147.4 36.1-147.4 13.7v-2.3l147.4-13.7z" fill="#dfeaff"/><path clip-path="url(#a)" d="m147.4 38.4-147.4 13.7v-2.3l147.4-13.7z" fill="#dee9ff"/><path clip-path="url(#a)" d="m147.4 40.7-147.4 13.8v-2.4l147.4-13.7z" fill="#dde9ff"/><path clip-path="url(#a)" d="m147.4 43.1-147.4 13.7v-2.3l147.4-13.8z" fill="#dce8ff"/><path clip-path="url(#a)" d="m147.4 45.4-147.4 13.7v-2.3l147.4-13.7z" fill="#dbe7ff"/><path clip-path="url(#a)" d="m147.4 47.7-147.4 13.7v-2.3l147.4-13.7z" fill="#dae7ff"/><path clip-path="url(#a)" d="m147.4 50-147.4 13.7v-2.3l147.4-13.7z" fill="#d9e6ff"/><path clip-path="url(#a)" d="m147.4 52.3-147.4 13.7v-2.3l147.4-13.7z" fill="#d8e5ff"/><path clip-path="url(#a)" d="m147.4 54.6-147.4 13.7v-2.3l147.4-13.7z" fill="#d7e5ff"/><path clip-path="url(#a)" d="m147.4 56.9-147.4 13.8v-2.4l147.4-13.7z" fill="#d6e4ff"/><path clip-path="url(#a)" d="m147.4 59.3-147.4 13.7v-2.3l147.4-13.8z" fill="#d5e3ff"/><path clip-path="url(#a)" d="m147.4 61.6-147.4 13.7v-2.3l147.4-13.7z" fill="#d4e3ff"/><path clip-path="url(#a)" d="m147.4 63.9-147.4 13.7v-2.3l147.4-13.7z" fill="#d3e2ff"/><path clip-path="url(#a)" d="m147.4 66.2-147.4 13.7v-2.3l147.4-13.7z" fill="#d2e1ff"/><path clip-path="url(#a)" d="m147.4 68.5-147.4 13.7v-2.3l147.4-13.7z" fill="#d1e1ff"/><path clip-path="url(#a)" d="m147.4 70.8-147.4 13.7v-2.3l147.4-13.7z" fill="#d0e0ff"/><path clip-path="url(#a)" d="m147.4 73.1-147.4 13.8v-2.4l147.4-13.7z" fill="#cfdfff"/><path clip-path="url(#a)" d="m147.4 75.5-147.4 13.7v-2.3l147.4-13.8z" fill="#cedfff"/><path clip-path="url(#a)" d="m147.4 77.8-147.4 13.7v-2.3l147.4-13.7z" fill="#cddeff"/><path clip-path="url(#a)" d="m147.4 80.1-147.4 13.7v-2.3l147.4-13.7z" fill="#cdf"/><path clip-path="url(#a)" d="m147.4 82.4-147.4 13.7v-2.3l147.4-13.7z" fill="#cbddff"/><path clip-path="url(#a)" d="m147.4 84.7-147.4 13.7v-2.3l147.4-13.7z" fill="#cadcff"/><path clip-path="url(#a)" d="m147.4 87-139.4 13h-8v-1.6l147.4-13.7z" fill="#c8dbff"/><path clip-path="url(#a)" d="m147.4 89.3-114.5 10.7h-24.9l139.4-13z" fill="#c7dbff"/><path clip-path="url(#a)" d="m147.4 91.7-89.6 8.3h-24.9l114.5-10.7z" fill="#c6daff"/><path clip-path="url(#a)" d="m147.4 94-64.8 6h-24.8l89.6-8.3z" fill="#c5d9ff"/><path clip-path="url(#a)" d="m147.4 96.3-39.9 3.7h-24.9l64.8-6z" fill="#c4d9ff"/><path clip-path="url(#a)" d="m147.4 98.6-15 1.4h-24.9l39.9-3.7z" fill="#c3d8ff"/><path clip-path="url(#a)" d="m132.4 100 15-1.4v1.4z" fill="#c2d7ff"/><path d="m135.7 74.7h-74c-1.2 0-2.2 1-2.2 2.2v10c0 1.2 1 2.2 2.2 2.2h74c1.2 0 2.2-1 2.2-2.2v-10c0-1.2-1-2.2-2.2-2.2z" fill="#fff"/><path d="m112.7 80.9v-.6h1.3v5h-.6v-4.4zm2.4.7c0-1.2 1.5-1.6 2.5-1.2s.9 2-.2 2.3c.9.2 1.2 1.3.8 2-.8 1.2-3.1.8-3.1-.8h.6c0 .9 1.3 1.2 1.9.7.4-.3.3-1.2-.1-1.4-.2-.2-.8-.2-1.2-.2v-.5c.4 0 .9-.1 1.1-.2.4-.2.4-.9.1-1.2-.5-.5-1.6-.2-1.7.6h-.7zm4 3.2c1.1-1 3.3-2.3 2.3-3.8-.3-.4-1.1-.3-1.4 0-.2.2-.3.5-.3.8h-.6c-.1-1.5 1.7-2.1 2.7-1.2 1.3 1.5-.6 3.2-1.8 4.1h2.4v.5h-3.3z" fill="#1c85e8"/><path d="m49 10.6h-38.8c-1.5 0-2.6 1.2-2.6 2.6v73.3c0 1.5 1.2 2.6 2.6 2.6h38.8c1.5 0 2.6-1.2 2.6-2.6v-73.3c.1-1.4-1.1-2.6-2.6-2.6z" fill="#1c85e8"/><g fill="#fff"><path d="m29.6 62.7c6.1 0 11.1-5 11.1-11.1-.6-14.7-21.6-14.7-22.2 0 0 6.2 5 11.1 11.1 11.1z" opacity=".4"/><path d="m26.2 48.6v7.1c0 .8 1 1.4 1.7 1 0 0 6.4-3.5 6.4-3.5.8-.4.8-1.6 0-2 0 0-6.4-3.5-6.4-3.5-.7-.5-1.7 0-1.7.9z"/><path d="m89.1 22.8h-27.7c-1.5 0-2.8-1.2-2.8-2.8s1.2-2.8 2.8-2.8h27.7c1.5 0 2.8 1.2 2.8 2.8s-1.2 2.8-2.8 2.8z"/><path d="m118.7 35.7h-57.3c-1.5 0-2.8-1.2-2.8-2.8 0-1.5 1.2-2.8 2.8-2.8h57.3c1.5 0 2.8 1.2 2.8 2.8s-1.3 2.8-2.8 2.8z" opacity=".4"/><path d="m89.5 52.9h-27.8c-1.5 0-2.8-1.2-2.8-2.8 0-1.5 1.2-2.8 2.8-2.8h27.7c1.5 0 2.8 1.2 2.8 2.8 0 1.5-1.2 2.8-2.7 2.8z"/><path d="m119 65.8h-57.3c-1.5 0-2.8-1.2-2.8-2.8s1.2-2.8 2.8-2.8h57.3c1.5 0 2.8 1.2 2.8 2.8s-1.2 2.8-2.8 2.8z" opacity=".4"/></g><path d="m71.8 79.4c-.9-.8-2.3-.8-3.2 0 0 0-.6.6-.6.6l-.6-.6c-1.4-1.4-3.9-.3-3.9 1.6 0 .6.3 1.2.7 1.6 0 0 3.8 3.5 3.8 3.5l3.8-3.5c1-.7 1-2.3 0-3.2z" fill="#f4608a"/><path d="m76 81.6c0-1.2 1.5-1.6 2.5-1.2s.9 2-.2 2.3c.9.2 1.2 1.3.8 2-.8 1.2-3.1.8-3.1-.8h.6c0 .9 1.3 1.2 1.9.7.4-.3.3-1.2-.1-1.4-.2-.2-.8-.2-1.2-.2v-.5c.4 0 .9-.1 1.1-.2.4-.2.4-.9.1-1.2-.5-.5-1.6-.2-1.7.6h-.7zm4.9 2.9-.8 1.9h-.4l.5-1.9zm3.8-3.6h-2.4v1.6c.6-.8 2.2-.6 2.6.4.3.8.2 1.9-.6 2.3-1 .6-2.6.1-2.7-1.1h.6c.1.9 1.4 1.1 1.9.5.2-.2.3-.5.3-.9.1-1.3-1.7-1.5-2.1-.5h-.6v-2.8h3zm1.1 3.9c1.1-1 3.3-2.3 2.3-3.8-.3-.4-1.1-.3-1.4 0-.2.2-.3.5-.3.8h-.6c-.1-1.5 1.7-2.1 2.7-1.2 1.3 1.5-.6 3.2-1.8 4.1h2.4v.5h-3.3zm7.1-4-1.9 4.5h-.6l2-4.5h-2.7v-.5h3.3v.5z" fill="#1c85e8"/><path d="m109.9 81.9c-.3-5.1-11-5.1-11.3 0-.1 2.3 3.2 4.2 6.3 3.8.1 0 .1 0 .2.1.4.4 1.3 1.1 2.9 1.2.2 0 .3-.2.2-.3-.3-.4-.5-.9-.7-1.4 0-.1 0-.2.1-.3 1.4-.7 2.3-1.8 2.3-3.1z" fill="#1c85e8"/></svg>