<svg id="publication" viewBox="0 0 147.4 100" xmlns="http://www.w3.org/2000/svg">
    <style type="text/css">
        .st0 {
        fill: #5CA4E6;
        }

        .st1 {
        clip-path: url(#SVGID_00000025415559922582051390000012001425970274513082_);
        fill: #F4F8FF;
        }

        .st2 {
        clip-path: url(#SVGID_00000025415559922582051390000012001425970274513082_);
        fill: #F3F7FF;
        }

        .st3 {
        clip-path: url(#SVGID_00000025415559922582051390000012001425970274513082_);
        fill: #F2F6FF;
        }

        .st4 {
        clip-path: url(#SVGID_00000025415559922582051390000012001425970274513082_);
        fill: #F1F6FF;
        }

        .st5 {
        clip-path: url(#SVGID_00000025415559922582051390000012001425970274513082_);
        fill: #F0F5FF;
        }

        .st6 {
        clip-path: url(#SVGID_00000025415559922582051390000012001425970274513082_);
        fill: #EFF4FF;
        }

        .st7 {
        clip-path: url(#SVGID_00000025415559922582051390000012001425970274513082_);
        fill: #EEF4FF;
        }

        .st8 {
        clip-path: url(#SVGID_00000025415559922582051390000012001425970274513082_);
        fill: #EDF3FF;
        }

        .st9 {
        clip-path: url(#SVGID_00000025415559922582051390000012001425970274513082_);
        fill: #ECF2FF;
        }

        .st10 {
        clip-path: url(#SVGID_00000025415559922582051390000012001425970274513082_);
        fill: #EBF2FF;
        }

        .st11 {
        clip-path: url(#SVGID_00000025415559922582051390000012001425970274513082_);
        fill: #EAF1FF;
        }

        .st12 {
        clip-path: url(#SVGID_00000025415559922582051390000012001425970274513082_);
        fill: #E9F0FF;
        }

        .st13 {
        clip-path: url(#SVGID_00000025415559922582051390000012001425970274513082_);
        fill: #E8F0FF;
        }

        .st14 {
        clip-path: url(#SVGID_00000025415559922582051390000012001425970274513082_);
        fill: #E7EFFF;
        }

        .st15 {
        clip-path: url(#SVGID_00000025415559922582051390000012001425970274513082_);
        fill: #E6EEFF;
        }

        .st16 {
        clip-path: url(#SVGID_00000025415559922582051390000012001425970274513082_);
        fill: #E5EEFF;
        }

        .st17 {
        clip-path: url(#SVGID_00000025415559922582051390000012001425970274513082_);
        fill: #E4EDFF;
        }

        .st18 {
        clip-path: url(#SVGID_00000025415559922582051390000012001425970274513082_);
        fill: #E3EDFF;
        }

        .st19 {
        clip-path: url(#SVGID_00000025415559922582051390000012001425970274513082_);
        fill: #E2ECFF;
        }

        .st20 {
        clip-path: url(#SVGID_00000025415559922582051390000012001425970274513082_);
        fill: #E1EBFF;
        }

        .st21 {
        clip-path: url(#SVGID_00000025415559922582051390000012001425970274513082_);
        fill: #E0EBFF;
        }

        .st22 {
        clip-path: url(#SVGID_00000025415559922582051390000012001425970274513082_);
        fill: #DFEAFF;
        }

        .st23 {
        clip-path: url(#SVGID_00000025415559922582051390000012001425970274513082_);
        fill: #DEE9FF;
        }

        .st24 {
        clip-path: url(#SVGID_00000025415559922582051390000012001425970274513082_);
        fill: #DDE9FF;
        }

        .st25 {
        clip-path: url(#SVGID_00000025415559922582051390000012001425970274513082_);
        fill: #DCE8FF;
        }

        .st26 {
        clip-path: url(#SVGID_00000025415559922582051390000012001425970274513082_);
        fill: #DBE7FF;
        }

        .st27 {
        clip-path: url(#SVGID_00000025415559922582051390000012001425970274513082_);
        fill: #DAE7FF;
        }

        .st28 {
        clip-path: url(#SVGID_00000025415559922582051390000012001425970274513082_);
        fill: #D9E6FF;
        }

        .st29 {
        clip-path: url(#SVGID_00000025415559922582051390000012001425970274513082_);
        fill: #D8E5FF;
        }

        .st30 {
        clip-path: url(#SVGID_00000025415559922582051390000012001425970274513082_);
        fill: #D7E5FF;
        }

        .st31 {
        clip-path: url(#SVGID_00000025415559922582051390000012001425970274513082_);
        fill: #D6E4FF;
        }

        .st32 {
        clip-path: url(#SVGID_00000025415559922582051390000012001425970274513082_);
        fill: #D5E3FF;
        }

        .st33 {
        clip-path: url(#SVGID_00000025415559922582051390000012001425970274513082_);
        fill: #D4E3FF;
        }

        .st34 {
        clip-path: url(#SVGID_00000025415559922582051390000012001425970274513082_);
        fill: #D3E2FF;
        }

        .st35 {
        clip-path: url(#SVGID_00000025415559922582051390000012001425970274513082_);
        fill: #D2E1FF;
        }

        .st36 {
        clip-path: url(#SVGID_00000025415559922582051390000012001425970274513082_);
        fill: #D1E1FF;
        }

        .st37 {
        clip-path: url(#SVGID_00000025415559922582051390000012001425970274513082_);
        fill: #D0E0FF;
        }

        .st38 {
        clip-path: url(#SVGID_00000025415559922582051390000012001425970274513082_);
        fill: #CFDFFF;
        }

        .st39 {
        clip-path: url(#SVGID_00000025415559922582051390000012001425970274513082_);
        fill: #CEDFFF;
        }

        .st40 {
        clip-path: url(#SVGID_00000025415559922582051390000012001425970274513082_);
        fill: #CDDEFF;
        }

        .st41 {
        clip-path: url(#SVGID_00000025415559922582051390000012001425970274513082_);
        fill: #CCDDFF;
        }

        .st42 {
        clip-path: url(#SVGID_00000025415559922582051390000012001425970274513082_);
        fill: #CBDDFF;
        }

        .st43 {
        clip-path: url(#SVGID_00000025415559922582051390000012001425970274513082_);
        fill: #CADCFF;
        }

        .st44 {
        clip-path: url(#SVGID_00000025415559922582051390000012001425970274513082_);
        fill: #C8DBFF;
        }

        .st45 {
        clip-path: url(#SVGID_00000025415559922582051390000012001425970274513082_);
        fill: #C7DBFF;
        }

        .st46 {
        clip-path: url(#SVGID_00000025415559922582051390000012001425970274513082_);
        fill: #C6DAFF;
        }

        .st47 {
        clip-path: url(#SVGID_00000025415559922582051390000012001425970274513082_);
        fill: #C5D9FF;
        }

        .st48 {
        clip-path: url(#SVGID_00000025415559922582051390000012001425970274513082_);
        fill: #C4D9FF;
        }

        .st49 {
        clip-path: url(#SVGID_00000025415559922582051390000012001425970274513082_);
        fill: #C3D8FF;
        }

        .st50 {
        clip-path: url(#SVGID_00000025415559922582051390000012001425970274513082_);
        fill: #C2D7FF;
        }

        .st51 {
        fill: #FFFFFF;
        }

        .st52 {
        fill: #1C85E8;
        }

        .st53 {
        opacity: 0.4;
        enable-background: new;
        }

        .st54 {
        fill: #F4608A;
        }
    </style>
    <g>
        <rect x="98" y="11.9" class="st0" width="2.3" height="0.3"/>
    </g>
    <g>
        <g>
            <defs>
                <path id="SVGID_1_" d="M140.3,0H7.1C3.2,0,0,3.2,0,7.1v85.9c0,3.9,3.2,7.1,7.1,7.1h133.3c3.9,0,7.1-3.2,7.1-7.1V7.1
				C147.4,3.2,144.2,0,140.3,0z"/>
            </defs>
            <clipPath id="SVGID_00000033354305398848095900000008996149911305543094_">
                <use xlink:href="#SVGID_1_" style="overflow:visible;"/>
            </clipPath>
            <polygon style="clip-path:url(#SVGID_00000033354305398848095900000008996149911305543094_);fill:#F4F8FF;" points="13.2,0 0,1.2
			0,0 		"/>
            <polygon style="clip-path:url(#SVGID_00000033354305398848095900000008996149911305543094_);fill:#F3F7FF;" points="38,0 0,3.5
			0,1.2 13.2,0 		"/>
            <polygon style="clip-path:url(#SVGID_00000033354305398848095900000008996149911305543094_);fill:#F2F6FF;" points="62.9,0 0,5.9
			0,3.5 38,0 		"/>
            <polygon style="clip-path:url(#SVGID_00000033354305398848095900000008996149911305543094_);fill:#F1F6FF;" points="87.8,0 0,8.2
			0,5.9 62.9,0 		"/>
            <polygon style="clip-path:url(#SVGID_00000033354305398848095900000008996149911305543094_);fill:#F0F5FF;" points="112.7,0
			0,10.5 0,8.2 87.8,0 		"/>
            <polygon style="clip-path:url(#SVGID_00000033354305398848095900000008996149911305543094_);fill:#EFF4FF;" points="137.5,0
			0,12.8 0,10.5 112.7,0 		"/>
            <polygon style="clip-path:url(#SVGID_00000033354305398848095900000008996149911305543094_);fill:#EEF4FF;" points="147.4,1.4
			0,15.1 0,12.8 137.5,0 147.4,0 		"/>
            <polygon style="clip-path:url(#SVGID_00000033354305398848095900000008996149911305543094_);fill:#EDF3FF;" points="147.4,3.7
			0,17.4 0,15.1 147.4,1.4 		"/>
            <polygon style="clip-path:url(#SVGID_00000033354305398848095900000008996149911305543094_);fill:#ECF2FF;" points="147.4,6
			0,19.7 0,17.4 147.4,3.7 		"/>
            <polygon style="clip-path:url(#SVGID_00000033354305398848095900000008996149911305543094_);fill:#EBF2FF;" points="147.4,8.3
			0,22.1 0,19.7 147.4,6 		"/>
            <polygon style="clip-path:url(#SVGID_00000033354305398848095900000008996149911305543094_);fill:#EAF1FF;" points="147.4,10.7
			0,24.4 0,22.1 147.4,8.3 		"/>
            <polygon style="clip-path:url(#SVGID_00000033354305398848095900000008996149911305543094_);fill:#E9F0FF;" points="147.4,13
			0,26.7 0,24.4 147.4,10.7 		"/>
            <polygon style="clip-path:url(#SVGID_00000033354305398848095900000008996149911305543094_);fill:#E8F0FF;" points="147.4,15.3
			0,29 0,26.7 147.4,13 		"/>
            <polygon style="clip-path:url(#SVGID_00000033354305398848095900000008996149911305543094_);fill:#E7EFFF;" points="147.4,17.6
			0,31.3 0,29 147.4,15.3 		"/>
            <polygon style="clip-path:url(#SVGID_00000033354305398848095900000008996149911305543094_);fill:#E6EEFF;" points="147.4,19.9
			0,33.6 0,31.3 147.4,17.6 		"/>
            <polygon style="clip-path:url(#SVGID_00000033354305398848095900000008996149911305543094_);fill:#E5EEFF;" points="147.4,22.2
			0,35.9 0,33.6 147.4,19.9 		"/>
            <polygon style="clip-path:url(#SVGID_00000033354305398848095900000008996149911305543094_);fill:#E4EDFF;" points="147.4,24.5
			0,38.3 0,35.9 147.4,22.2 		"/>
            <polygon style="clip-path:url(#SVGID_00000033354305398848095900000008996149911305543094_);fill:#E3EDFF;" points="147.4,26.9
			0,40.6 0,38.3 147.4,24.5 		"/>
            <polygon style="clip-path:url(#SVGID_00000033354305398848095900000008996149911305543094_);fill:#E2ECFF;" points="147.4,29.2
			0,42.9 0,40.6 147.4,26.9 		"/>
            <polygon style="clip-path:url(#SVGID_00000033354305398848095900000008996149911305543094_);fill:#E1EBFF;" points="147.4,31.5
			0,45.2 0,42.9 147.4,29.2 		"/>
            <polygon style="clip-path:url(#SVGID_00000033354305398848095900000008996149911305543094_);fill:#E0EBFF;" points="147.4,33.8
			0,47.5 0,45.2 147.4,31.5 		"/>
            <polygon style="clip-path:url(#SVGID_00000033354305398848095900000008996149911305543094_);fill:#DFEAFF;" points="147.4,36.1
			0,49.8 0,47.5 147.4,33.8 		"/>
            <polygon style="clip-path:url(#SVGID_00000033354305398848095900000008996149911305543094_);fill:#DEE9FF;" points="147.4,38.4
			0,52.1 0,49.8 147.4,36.1 		"/>
            <polygon style="clip-path:url(#SVGID_00000033354305398848095900000008996149911305543094_);fill:#DDE9FF;" points="147.4,40.7
			0,54.5 0,52.1 147.4,38.4 		"/>
            <polygon style="clip-path:url(#SVGID_00000033354305398848095900000008996149911305543094_);fill:#DCE8FF;" points="147.4,43.1
			0,56.8 0,54.5 147.4,40.7 		"/>
            <polygon style="clip-path:url(#SVGID_00000033354305398848095900000008996149911305543094_);fill:#DBE7FF;" points="147.4,45.4
			0,59.1 0,56.8 147.4,43.1 		"/>
            <polygon style="clip-path:url(#SVGID_00000033354305398848095900000008996149911305543094_);fill:#DAE7FF;" points="147.4,47.7
			0,61.4 0,59.1 147.4,45.4 		"/>
            <polygon style="clip-path:url(#SVGID_00000033354305398848095900000008996149911305543094_);fill:#D9E6FF;" points="147.4,50
			0,63.7 0,61.4 147.4,47.7 		"/>
            <polygon style="clip-path:url(#SVGID_00000033354305398848095900000008996149911305543094_);fill:#D8E5FF;" points="147.4,52.3
			0,66 0,63.7 147.4,50 		"/>
            <polygon style="clip-path:url(#SVGID_00000033354305398848095900000008996149911305543094_);fill:#D7E5FF;" points="147.4,54.6
			0,68.3 0,66 147.4,52.3 		"/>
            <polygon style="clip-path:url(#SVGID_00000033354305398848095900000008996149911305543094_);fill:#D6E4FF;" points="147.4,56.9
			0,70.7 0,68.3 147.4,54.6 		"/>
            <polygon style="clip-path:url(#SVGID_00000033354305398848095900000008996149911305543094_);fill:#D5E3FF;" points="147.4,59.3
			0,73 0,70.7 147.4,56.9 		"/>
            <polygon style="clip-path:url(#SVGID_00000033354305398848095900000008996149911305543094_);fill:#D4E3FF;" points="147.4,61.6
			0,75.3 0,73 147.4,59.3 		"/>
            <polygon style="clip-path:url(#SVGID_00000033354305398848095900000008996149911305543094_);fill:#D3E2FF;" points="147.4,63.9
			0,77.6 0,75.3 147.4,61.6 		"/>
            <polygon style="clip-path:url(#SVGID_00000033354305398848095900000008996149911305543094_);fill:#D2E1FF;" points="147.4,66.2
			0,79.9 0,77.6 147.4,63.9 		"/>
            <polygon style="clip-path:url(#SVGID_00000033354305398848095900000008996149911305543094_);fill:#D1E1FF;" points="147.4,68.5
			0,82.2 0,79.9 147.4,66.2 		"/>
            <polygon style="clip-path:url(#SVGID_00000033354305398848095900000008996149911305543094_);fill:#D0E0FF;" points="147.4,70.8
			0,84.5 0,82.2 147.4,68.5 		"/>
            <polygon style="clip-path:url(#SVGID_00000033354305398848095900000008996149911305543094_);fill:#CFDFFF;" points="147.4,73.1
			0,86.9 0,84.5 147.4,70.8 		"/>
            <polygon style="clip-path:url(#SVGID_00000033354305398848095900000008996149911305543094_);fill:#CEDFFF;" points="147.4,75.5
			0,89.2 0,86.9 147.4,73.1 		"/>
            <polygon style="clip-path:url(#SVGID_00000033354305398848095900000008996149911305543094_);fill:#CDDEFF;" points="147.4,77.8
			0,91.5 0,89.2 147.4,75.5 		"/>
            <polygon style="clip-path:url(#SVGID_00000033354305398848095900000008996149911305543094_);fill:#CCDDFF;" points="147.4,80.1
			0,93.8 0,91.5 147.4,77.8 		"/>
            <polygon style="clip-path:url(#SVGID_00000033354305398848095900000008996149911305543094_);fill:#CBDDFF;" points="147.4,82.4
			0,96.1 0,93.8 147.4,80.1 		"/>
            <polygon style="clip-path:url(#SVGID_00000033354305398848095900000008996149911305543094_);fill:#CADCFF;" points="147.4,84.7
			0,98.4 0,96.1 147.4,82.4 		"/>
            <polygon style="clip-path:url(#SVGID_00000033354305398848095900000008996149911305543094_);fill:#C8DBFF;" points="147.4,87
			8,100 0,100 0,98.4 147.4,84.7 		"/>
            <polygon style="clip-path:url(#SVGID_00000033354305398848095900000008996149911305543094_);fill:#C7DBFF;" points="147.4,89.3
			32.9,100 8,100 147.4,87 		"/>
            <polygon style="clip-path:url(#SVGID_00000033354305398848095900000008996149911305543094_);fill:#C6DAFF;" points="147.4,91.7
			57.8,100 32.9,100 147.4,89.3 		"/>
            <polygon style="clip-path:url(#SVGID_00000033354305398848095900000008996149911305543094_);fill:#C5D9FF;" points="147.4,94
			82.6,100 57.8,100 147.4,91.7 		"/>
            <polygon style="clip-path:url(#SVGID_00000033354305398848095900000008996149911305543094_);fill:#C4D9FF;" points="147.4,96.3
			107.5,100 82.6,100 147.4,94 		"/>
            <polygon style="clip-path:url(#SVGID_00000033354305398848095900000008996149911305543094_);fill:#C3D8FF;" points="147.4,98.6
			132.4,100 107.5,100 147.4,96.3 		"/>
            <polygon style="clip-path:url(#SVGID_00000033354305398848095900000008996149911305543094_);fill:#C2D7FF;" points="132.4,100
			147.4,98.6 147.4,100 		"/>
        </g>
    </g>
    <g>
        <path class="st51" d="M135.7,74.7h-74c-1.2,0-2.2,1-2.2,2.2v10c0,1.2,1,2.2,2.2,2.2h74c1.2,0,2.2-1,2.2-2.2v-10
		C137.9,75.7,136.9,74.7,135.7,74.7z"/>
    </g>
    <g>
        <path class="st52" d="M112.7,80.9v-0.6h1.3v5h-0.6v-4.4H112.7z M115.1,81.6c0-1.2,1.5-1.6,2.5-1.2c1,0.4,0.9,2-0.2,2.3v0
		c0.9,0.2,1.2,1.3,0.8,2c-0.8,1.2-3.1,0.8-3.1-0.8h0.6c0,0.9,1.3,1.2,1.9,0.7c0.4-0.3,0.3-1.2-0.1-1.4c-0.2-0.2-0.8-0.2-1.2-0.2
		v-0.5c0.4,0,0.9-0.1,1.1-0.2c0.4-0.2,0.4-0.9,0.1-1.2c-0.5-0.5-1.6-0.2-1.7,0.6H115.1z M119.1,84.8c1.1-1,3.3-2.3,2.3-3.8
		c-0.3-0.4-1.1-0.3-1.4,0c-0.2,0.2-0.3,0.5-0.3,0.8h-0.6c-0.1-1.5,1.7-2.1,2.7-1.2c1.3,1.5-0.6,3.2-1.8,4.1h2.4v0.5h-3.3V84.8z"/>
    </g>
    <g>
        <path class="st52" d="M49,10.6H10.2c-1.5,0-2.6,1.2-2.6,2.6v73.3c0,1.5,1.2,2.6,2.6,2.6H49c1.5,0,2.6-1.2,2.6-2.6V13.2
		C51.7,11.8,50.5,10.6,49,10.6z"/>
    </g>
    <g class="st53">
        <path class="st51" d="M29.6,62.7c6.1,0,11.1-5,11.1-11.1c-0.6-14.7-21.6-14.7-22.2,0C18.5,57.8,23.5,62.7,29.6,62.7z"/>
    </g>
    <g>
        <path class="st51" d="M26.2,48.6v7.1c0,0.8,1,1.4,1.7,1c0,0,6.4-3.5,6.4-3.5c0.8-0.4,0.8-1.6,0-2c0,0-6.4-3.5-6.4-3.5
		C27.2,47.2,26.2,47.7,26.2,48.6z"/>
    </g>
    <g>
        <path class="st51" d="M89.1,22.8H61.4c-1.5,0-2.8-1.2-2.8-2.8s1.2-2.8,2.8-2.8h27.7c1.5,0,2.8,1.2,2.8,2.8S90.7,22.8,89.1,22.8z"/>
    </g>
    <g class="st53">
        <path class="st51" d="M118.7,35.7H61.4c-1.5,0-2.8-1.2-2.8-2.8c0-1.5,1.2-2.8,2.8-2.8h57.3c1.5,0,2.8,1.2,2.8,2.8
		C121.5,34.5,120.2,35.7,118.7,35.7z"/>
    </g>
    <g>
        <path class="st51" d="M89.5,52.9H61.7c-1.5,0-2.8-1.2-2.8-2.8c0-1.5,1.2-2.8,2.8-2.8h27.7c1.5,0,2.8,1.2,2.8,2.8
		C92.2,51.6,91,52.9,89.5,52.9z"/>
    </g>
    <g class="st53">
        <path class="st51" d="M119,65.8H61.7c-1.5,0-2.8-1.2-2.8-2.8s1.2-2.8,2.8-2.8H119c1.5,0,2.8,1.2,2.8,2.8S120.6,65.8,119,65.8z"/>
    </g>
    <g>
        <path class="st54" d="M71.8,79.4c-0.9-0.8-2.3-0.8-3.2,0c0,0-0.6,0.6-0.6,0.6l-0.6-0.6c-1.4-1.4-3.9-0.3-3.9,1.6
		c0,0.6,0.3,1.2,0.7,1.6c0,0,3.8,3.5,3.8,3.5l3.8-3.5C72.8,81.9,72.8,80.3,71.8,79.4z"/>
    </g>
    <g>
        <path class="st52" d="M76,81.6c0-1.2,1.5-1.6,2.5-1.2c1,0.4,0.9,2-0.2,2.3v0c0.9,0.2,1.2,1.3,0.8,2c-0.8,1.2-3.1,0.8-3.1-0.8h0.6
		c0,0.9,1.3,1.2,1.9,0.7c0.4-0.3,0.3-1.2-0.1-1.4c-0.2-0.2-0.8-0.2-1.2-0.2v-0.5c0.4,0,0.9-0.1,1.1-0.2c0.4-0.2,0.4-0.9,0.1-1.2
		c-0.5-0.5-1.6-0.2-1.7,0.6H76z M80.9,84.5l-0.8,1.9h-0.4l0.5-1.9H80.9z M84.7,80.9h-2.4v1.6c0.6-0.8,2.2-0.6,2.6,0.4
		c0.3,0.8,0.2,1.9-0.6,2.3c-1,0.6-2.6,0.1-2.7-1.1h0.6c0.1,0.9,1.4,1.1,1.9,0.5c0.2-0.2,0.3-0.5,0.3-0.9c0.1-1.3-1.7-1.5-2.1-0.5
		h-0.6v-2.8h3V80.9z M85.8,84.8c1.1-1,3.3-2.3,2.3-3.8c-0.3-0.4-1.1-0.3-1.4,0c-0.2,0.2-0.3,0.5-0.3,0.8h-0.6
		c-0.1-1.5,1.7-2.1,2.7-1.2c1.3,1.5-0.6,3.2-1.8,4.1h2.4v0.5h-3.3V84.8z M92.9,80.8L91,85.3h-0.6l2-4.5h-2.7v-0.5h3.3V80.8z"/>
    </g>
    <g>
        <path class="st52" d="M109.9,81.9c-0.3-5.1-11-5.1-11.3,0c-0.1,2.3,3.2,4.2,6.3,3.8c0.1,0,0.1,0,0.2,0.1c0.4,0.4,1.3,1.1,2.9,1.2
		c0.2,0,0.3-0.2,0.2-0.3c-0.3-0.4-0.5-0.9-0.7-1.4c0-0.1,0-0.2,0.1-0.3C109,84.3,109.9,83.2,109.9,81.9z"/>
    </g>
</svg>