<svg viewBox="0 0 147.8 100" xmlns="http://www.w3.org/2000/svg" xmlns:xlink="http://www.w3.org/1999/xlink"><clipPath id="a"><path d="m74.9 96.2h-23.3s-.9-11.6.5-17.7c.6-2.5 1.3-4.9 2.3-7.2.4-1.1.9-2.1 1.4-3.1l17.2.9c.2.7.3 1.4.5 2.2 2 10.4 1.4 24.9 1.4 24.9z"/></clipPath><path d="m65.6 17c0 .4-.3.7-.6.7-.4 0-.7-.3-.7-.6 0-.4.3-.7.6-.7.4-.1.7.2.7.6z" fill="#ddd"/><path d="m64.9 17.7c-.4 0-.8-.3-.8-.8 0-.4.3-.8.8-.8.4 0 .8.3.8.8 0 .5-.4.8-.8.8zm0-1.3c-.3 0-.5.2-.5.5s.2.5.5.5c.3 0 .5-.2.5-.5.1-.2-.2-.5-.5-.5z"/><path d="m81.2 17.2h-12.6c-.1 0-.2-.1-.2-.2s.1-.2.2-.2h12.6c.1 0 .2.1.2.2s-.1.2-.2.2z"/><path d="m65.6 20c0 .4-.3.6-.6.6-.4 0-.6-.3-.6-.6s.3-.6.6-.6c.3-.1.6.2.6.6z" fill="#ddd"/><path d="m64.9 20.7c-.4 0-.8-.3-.8-.8 0-.4.3-.8.8-.8.4 0 .8.3.8.8 0 .5-.4.8-.8.8zm0-1.3c-.3 0-.5.2-.5.5s.2.5.5.5.5-.2.5-.5c.1-.2-.2-.5-.5-.5z"/><path d="m73.4 20.2h-4.9c-.1 0-.2-.1-.2-.2s.1-.2.2-.2h4.9c.1 0 .2.1.2.2.1.1 0 .2-.2.2z"/><path d="m28.3 17c0 .4-.3.7-.6.7-.4 0-.7-.3-.7-.6 0-.4.3-.7.6-.7.4-.1.7.2.7.6z" fill="#ddd"/><path d="m27.6 17.7c-.4 0-.8-.3-.8-.8 0-.4.3-.8.8-.8.4 0 .8.3.8.8s-.4.8-.8.8zm0-1.3c-.3 0-.5.2-.5.5s.2.5.5.5c.3 0 .5-.2.5-.5.1-.2-.2-.5-.5-.5z"/><path d="m48.1 17.2h-16.8c-.1 0-.2-.1-.2-.2s.1-.2.2-.2h16.8c.1 0 .2.1.2.2s-.1.2-.2.2z"/><circle cx="27.6" cy="20" fill="#ddd" r=".6"/><path d="m27.6 20.7c-.4 0-.8-.3-.8-.8 0-.4.3-.8.8-.8.4 0 .8.3.8.8s-.4.8-.8.8zm0-1.3c-.3 0-.5.2-.5.5s.2.5.5.5.5-.2.5-.5-.2-.5-.5-.5z"/><path d="m39.4 20.2h-8.1c-.1 0-.2-.1-.2-.2s.1-.2.2-.2h8.1c.1 0 .2.1.2.2s-.1.2-.2.2z"/><path d="m28.3 23c0 .4-.3.7-.6.7-.4 0-.7-.3-.7-.6 0-.4.3-.7.6-.7.4 0 .7.3.7.6z" fill="#ddd"/><path d="m27.6 23.8c-.4 0-.8-.3-.8-.8 0-.4.3-.8.8-.8.4 0 .8.3.8.8s-.4.8-.8.8zm0-1.3c-.1 0-.3.1-.4.2s-.2.2-.2.4c0 .3.2.5.5.5.3 0 .5-.2.5-.5.2-.4-.1-.6-.4-.6z"/><path d="m41.9 23.3h-10.6c-.1 0-.2-.1-.2-.2s.1-.2.2-.2h10.6c.1 0 .2.1.2.2s-.1.2-.2.2z"/><path d="m90.9 13.4h-27.8c-.1 0-.1-.1-.1-.1v-3.4c0-.1.1-.1.1-.1h27.8c.1 0 .1.1.1.1v3.4c.1.1 0 .1-.1.1zm-27.7-.2h27.6v-3.2h-27.6z"/><path d="m54.4 13.4h-27.9c-.1 0-.1-.1-.1-.1v-3.4c0-.1.1-.1.1-.1h27.8c.1 0 .1.1.1.1v3.4c.1.1 0 .1 0 .1zm-27.8-.2h27.6v-3.2h-27.6z"/><path d="m127.8 75.6h-113c-.1 0-.2-.1-.2-.2v-72c0-.1.1-.2.2-.2h113c.1 0 .2.1.2.2v72c0 .1-.1.2-.2.2zm-112.8-.4h112.5v-71.6h-112.5z"/><path d="m129.7 78.9h-116.8c-.1 0-.2-.1-.2-.2v-3.1c0-.1.1-.2.2-.2h116.7c.1 0 .2.1.2.2v3.1c.1.1 0 .2-.1.2zm-116.6-.5h116.3v-2.7h-116.3z"/><path d="m129.7 3.6h-116.8c-.1 0-.2-.1-.2-.2v-3.2c0-.1.1-.2.2-.2h116.7c.1 0 .2.1.2.2v3.1c.1.2 0 .3-.1.3zm-116.6-.5h116.3v-2.6h-116.3z"/><path d="m111.5 13.8c-5.3-2.2-7.9 3.9-5.9 7.7.5.9.4 1.6 0 2.7s-.5 1.9.7 2.3c1.2.5 1.7-.1 2.2-1.1.4-1.1.9-1.6 1.9-2 4-1.3 6.3-7.5 1.1-9.6z" fill="#f9f9f9"/><path d="m107 26.8c-.2 0-.5-.1-.8-.2-.5-.2-.8-.5-1-.8-.2-.4-.1-.9.2-1.6.5-1.1.5-1.8 0-2.6-1.1-2.2-.8-5.2.8-6.9 1.3-1.4 3.2-1.8 5.3-.9s3.2 2.4 3.1 4.3c-.1 2.4-1.9 4.7-4.3 5.5-.9.3-1.3.8-1.8 1.9-.3.6-.7 1.3-1.5 1.3zm2.3-13.4c-1.1 0-2.1.4-2.9 1.3-1.5 1.7-1.9 4.6-.8 6.7.5 1 .4 1.8 0 2.8-.3.7-.3 1.1-.2 1.5.1.3.4.5.9.7 1.1.5 1.6-.1 2-1.1.5-1.2 1-1.7 1.9-2 2.3-.7 4.1-3 4.1-5.3.1-1.8-1-3.3-3-4.1-.6-.3-1.3-.5-2-.5z"/><path d="m106.8 25.4c-.1 0-.1 0-.1-.1-.2-1-.2-1.6.1-2 .2-.3.4-.4.8-.5.6-.2 1.1-.4 1.2-.7-.1 0-.2 0-.3 0-.5 0-1.2-.1-1.4-.5s0-.6.1-.6c.4-.2 1.4 0 1.7.5.1.1.1.2.1.3.2-.1.4-.2.4-.3 0 0 .1-.1 0-.2-.2-.3-.6-.7-.9-.9-.4-.3-.6-.5-.6-.7 0-.1.1-.1.2-.2.3-.1.7.1 1.1.2.2 0 .4.1.5.1-.8-.8-.4-1.3 0-1.8.2-.3.4-.6.6-1 0-.1.1-.1.1-.1.1 0 .1.1.1.1-.1.5-.4.8-.6 1.1-.4.5-.6.8 0 1.5.1.1.2.2.1.3s-.3.1-.8 0c-.4-.1-.8-.2-1-.2 0 .1.3.3.5.5.3.3.7.6 1 1 .1.2.1.4.1.5-.1.2-.4.3-.6.4v.1c-.2.4-.7.7-1.4.9-.3.1-.5.2-.6.4-.2.4-.2 1 0 1.9-.2 0-.3 0-.4 0 .1 0 .1 0 0 0zm.8-4.4c-.1 0-.2 0-.3.1 0 0-.2.1 0 .3.2.3.6.4 1.2.4h.3c0-.1 0-.2-.1-.3-.2-.3-.7-.5-1.1-.5z"/><path d="m109.1 24.9c-.2.3-.3.6-.5 1-.1.3-.2.5-.4.7-.5.8-1.2 1.2-2.4.7s-1.4-1.2-1.2-2.2c.1-.3.2-.5.3-.8s.3-.7.3-1c1.3.8 2.5 1.4 3.9 1.6z" fill="#f9f9f9"/><path d="m106.9 27.7c-.3 0-.6-.1-1-.2-1.1-.5-1.5-1.2-1.3-2.3.1-.3.2-.5.3-.8s.3-.7.3-1c0 0 0-.1.1-.1h.1c1.2.7 2.4 1.3 3.8 1.5 0 0 .1 0 .1.1v.1c-.2.3-.3.6-.5 1-.1.3-.2.5-.4.8-.4.6-.9.9-1.5.9zm-1.5-4.1c-.1.3-.2.6-.3.9s-.2.5-.3.8c-.2 1 .1 1.6 1.1 2s1.7.2 2.2-.7c.1-.2.3-.5.4-.7.1-.3.3-.6.4-.9-1.2-.3-2.4-.7-3.5-1.4z"/><path d="m109.1 24.9c-.2.3-.3.6-.4.9v.1c-.1.3-.2.5-.4.7-.5.1-1.1 0-2-.3s-1.3-.7-1.6-1.1c.1-.3.2-.5.3-.8v-.1c.1-.3.2-.6.3-.9 1.2.7 2.4 1.3 3.8 1.5z" fill="#f9f9f9"/><path d="m107.8 26.8c-.4 0-1-.1-1.6-.4-.8-.3-1.4-.7-1.7-1.2v-.1c.1-.3.2-.5.3-.8v-.1c.1-.3.2-.6.3-.9 0 0 0-.1.1-.1h.1c1.2.7 2.4 1.3 3.8 1.5 0 0 .1 0 .1.1v.1c-.2.3-.3.6-.4.9v.1c-.1.3-.2.5-.4.8 0 0 0 0-.1.1-.2 0-.3 0-.5 0zm-3-1.6c.3.4.8.7 1.5 1.1.8.3 1.4.4 1.8.3.1-.2.2-.5.3-.7s0 0 0-.1c.1-.3.2-.5.4-.7-1.3-.3-2.5-.8-3.6-1.5-.1.3-.2.5-.3.8v.1c.1.2 0 .4-.1.7z"/><path d="m109.1 24.9c-.2.3-.3.6-.4.9-1.3-.2-2.6-.8-3.7-1.5.1-.3.2-.6.3-.9 1.2.7 2.4 1.3 3.8 1.5z" fill="#f9f9f9"/><path d="m108.7 25.9c-1.4-.3-2.6-.8-3.7-1.5 0 0-.1-.1 0-.1.1-.3.2-.6.3-.9 0 0 0-.1.1-.1h.1c1.2.7 2.4 1.3 3.8 1.5 0 0 .1 0 .1.1v.1c-.2.3-.3.6-.4.9-.2 0-.3 0-.3 0zm-3.6-1.6c1.1.7 2.2 1.2 3.5 1.4.1-.2.2-.5.3-.7-1.3-.3-2.5-.8-3.6-1.5 0 .3-.1.5-.2.8z"/><path d="m112.4 12.6c-.1 0-.1 0 0 0-.2-.1-.3-.2-.2-.3l1-2.4c0-.1.2-.2.3-.1.1 0 .2.2.1.3l-1 2.4c-.1 0-.2.1-.2.1z"/><path d="m116.2 16.3c-.1 0-.2-.1-.2-.2s.1-.2.2-.3l2.4-.3c.1 0 .2.1.3.2 0 .1-.1.2-.2.3z"/><path d="m105.5 13c-.1 0-.1 0-.2-.1l-2.1-2.3c-.1-.1-.1-.2 0-.3s.2-.1.3 0l2.1 2.3c.1.1.1.2 0 .3.1.1 0 .1-.1.1z"/><path d="m109 11.9c-.1 0-.1-.1-.1-.1v-1.6c0-.1.1-.1.1-.1s.1.1.1.1v1.6c0 .1-.1.1-.1.1z"/><path d="m101.6 17c-.1 0-.1 0-.1-.1s0-.1.1-.1l1.8-.3c.1 0 .1 0 .1.1s0 .1-.1.1z"/><path d="m116 22.4c-.1 0-.1 0 0 0l-.8-1.2c0-.1 0-.1 0-.2h.2l.7 1.1c0 .2 0 .2-.1.3z"/><path d="m114.8 14.3s-.1 0-.1-.1 0-.1.1-.2l1.3-.6c.1 0 .1 0 .2.1 0 .1 0 .1-.1.2l-1.4.6c.1 0 .1 0 0 0z"/><path d="m24 25h-5.3c-.5 2-.3 4.1.4 6l5.6-.1c0 .1-1.6-3.2-.7-5.9z" fill="#ddd"/><path d="m19 31.2c-.7-2-.9-4.1-.4-6.2v-.1h5.6v.1c-.8 2.6.6 5.8.6 5.9l.1.2zm-.2-6.1c-.4 1.9-.3 3.9.4 5.8l5.3-.1c-.3-.7-1.3-3.4-.6-5.7z"/><path d="m22.8 26.6h-2.7c-.1 0-.1-.1-.1-.1 0-.1.1-.1.1-.1h2.7c.1 0 .1.1.1.1 0 .1 0 .1-.1.1z"/><path d="m22.6 27.8h-2c-.1 0-.1-.1-.1-.1s.1-.1.1-.1h2c.1 0 .1.1.1.1s0 .1-.1.1z"/><path d="m22.8 28.9h-2.8c-.1 0-.1-.1-.1-.1s.1-.1.1-.1h2.8c.1 0 .1.1.1.1s-.1.1-.1.1z"/><path d="m24.2 21.5-5.5-.2s-.1 0-.1-.1v-.1s1.7-2.4 1.3-4.9v-.1h.1 5.1c.1 0 .1 0 .1.1.4 1.7.1 3.6-1 5.3zm-5.3-.5 5.3.2c.9-1.5 1.2-3.3.9-5h-4.9c.2 2.2-1 4.2-1.3 4.8z"/><path d="m24.3 17.5h-3.3c-.1 0-.1-.1-.1-.1 0-.1.1-.1.1-.1h3.3c.1 0 .1.1.1.1s-.1.1-.1.1z"/><path d="m23.6 18.6h-2.6c-.1 0-.1-.1-.1-.1s.1-.1.1-.1h2.7c.1 0 .1.1.1.1s-.1.1-.2.1z"/><path d="m22.2 20h-1.3c-.1 0-.1-.1-.1-.1 0-.1.1-.1.1-.1h1.3c.1 0 .1.1.1.1 0 .1-.1.1-.1.1z"/><path d="m23.3 20h-.8c-.1 0-.1-.1-.1-.1 0-.1.1-.1.1-.1h.8c.1 0 .1.1.1.1 0 .1 0 .1-.1.1z"/><path d="m36.8 38.3-5.5-.2s-.1 0-.1-.1v-.1s1.6-2.4 1.3-4.9v-.1h.1 5.1c.1 0 .1 0 .1.1.4 1.7.1 3.6-1 5.3.1 0 .1 0 0 0zm-5.3-.5 5.3.2c.9-1.5 1.2-3.3.9-5h-4.9c.2 2.2-.9 4.3-1.3 4.8z"/><path d="m36.9 34.3h-3.3c-.1 0-.1-.1-.1-.1s.1-.1.1-.1h3.3c.1 0 .1.1.1.1s-.1.1-.1.1z"/><path d="m36.2 35.4h-2.7c-.1 0-.1-.1-.1-.1 0-.1.1-.1.1-.1h2.7c.1 0 .1.1.1.1.1 0 0 .1-.1.1z"/><path d="m34.8 36.9h-1.3c-.1 0-.1-.1-.1-.1s.1-.1.1-.1h1.3c.1 0 .1.1.1.1s0 .1-.1.1z"/><path d="m35.9 36.9h-.8c-.1 0-.1-.1-.1-.1s.1-.1.1-.1h.8c.1 0 .1.1.1.1s0 .1-.1.1z"/><path d="m79.5 40.9-5.5-.2s-.1 0-.1-.1v-.1s1.7-2.4 1.3-4.9v-.1h.1 5.1c.1 0 .1 0 .1.1.4 1.8.1 3.7-1 5.3zm-5.4-.4 5.3.2c.9-1.5 1.2-3.3.9-5h-4.9c.2 2.2-.9 4.2-1.3 4.8z"/><path d="m79.5 36.9h-3.3c-.1 0-.1-.1-.1-.1 0-.1.1-.1.1-.1h3.3c.1 0 .1.1.1.1s0 .1-.1.1z"/><path d="m78.9 38h-2.7c-.1 0-.1-.1-.1-.1 0-.1.1-.1.1-.1h2.7c.1 0 .1.1.1.1 0 .1 0 .1-.1.1z"/><path d="m77.4 39.5h-1.3c-.1 0-.1-.1-.1-.1 0-.1.1-.1.1-.1h1.3c.1 0 .1.1.1.1s0 .1-.1.1z"/><path d="m78.6 39.5h-.8c-.1 0-.1-.1-.1-.1 0-.1.1-.1.1-.1h.8c.1 0 .1.1.1.1s-.1.1-.1.1z"/><path d="m88.3 21c-.1 0-.1 0 0 0-1.1-1.7-1.4-3.5-1-5.4 0-.1.1-.1.1-.1h5.1.1v.1c-.4 2.5 1.3 4.9 1.3 4.9v.1s-.1.1-.1.1zm-.8-5.2c-.4 1.7-.1 3.5.9 5l5.3-.2c-.4-.6-1.5-2.6-1.2-4.8z"/><path d="m91.6 17h-3.3c-.1 0-.1-.1-.1-.1s.1-.1.1-.1h3.3c.1 0 .1.1.1.1s-.1.1-.1.1z"/><path d="m91.5 18.1h-2.7c-.1 0-.1-.1-.1-.1 0-.1.1-.1.1-.1h2.7c.1 0 .1.1.1.1s0 .1-.1.1z"/><path d="m91.6 19.6h-1.3c-.1 0-.1-.1-.1-.1s.1-.1.1-.1h1.3c.1 0 .1.1.1.1s-.1.1-.1.1z"/><path d="m90 19.6h-.8c-.1 0-.1-.1-.1-.1s.1-.1.1-.1h.8c.1 0 .1.1.1.1s0 .1-.1.1z"/><path d="m58.9 63c-.1 0-.1-.1-.1-.1v-53.6c0-.1.1-.1.1-.1.1 0 .1.1.1.1v53.6c0 .1-.1.1-.1.1z"/><path d="m85.6 22.8c-1.2-3.7-1.8-5-2.5-5.8s-2.7-1.6-2.7-1.6-.8-3.2-1.9-3.1.7 4.4.7 4.4l-.9 4.2c.3.5.5 1 .7 1.6.7 2.4 2.7 2.6 3.3 4.6-.1-.1 3.3-2.2 3.3-4.3z" fill="#febd9d"/><path d="m85.6 22.8c-1.2-3.7-1.8-5-2.5-5.8s-2.7-1.6-2.7-1.6-.8-3.2-1.9-3.1.7 4.4.7 4.4l-.9 4.2c.3.5.5 1 .7 1.6.7 2.4 2.7 2.6 3.3 4.6-.1-.1 3.3-2.2 3.3-4.3z" fill="#febd9d"/><path d="m78.3 20.9c-.1 0-.1-.1-.1-.1l.9-4.2c-.1-.3-1.4-3.5-.9-4.3.1-.1.2-.2.3-.2h.1c1 0 1.8 2.8 1.9 3.2.3.1 2 .9 2.7 1.7v.1h-.1c-.7-.8-2.7-1.6-2.7-1.6s0 0 0-.1c-.2-.9-1-3.2-1.8-3.1-.1 0-.1 0-.2.1-.4.6.6 3.2 1 4.2v.1z" fill="#ef8a66"/><path d="m77.2 19.2c.9-.7 2.4 1.9 1.5 2.6-.7.5-2.3-2-1.5-2.6z" fill="#febd9d"/><path d="m78.5 21.9c-.3 0-.7-.2-1-.7-.6-.7-.9-1.7-.3-2.1.2-.2.4-.2.7-.1.6.2 1.1 1.1 1.2 1.8.1.4 0 .8-.3 1-.1.1-.2.1-.3.1zm-1-2.7c-.1 0-.2 0-.3.1-.4.3-.1 1.2.4 1.8.4.5.8.7 1 .6.2-.2.3-.5.2-.8-.1-.7-.6-1.5-1.1-1.7 0 0-.1 0-.2 0z" fill="#ef8a66"/><path d="m81.9 22.3c-.7-1.1-.8-2.4-.4-3.6 0-.1-.2-.9-.3-1.2 0-.1-.2-.2-.5-.4-.2-.1-.4-.2-.6-.4-.4-.3-.5-1-.4-1.3.1-.2.4-.3.6-.2 0 0 .1.1 0 .1 0 0-.1.1-.1 0-.2-.1-.3 0-.4.1-.2.3-.1.8.3 1.1.2.2.4.3.6.4.3.2.5.3.5.5.1.3.3 1.2.3 1.2-.4 1.1-.3 2.4.3 3.4.2.2.2.2.1.3z" fill="#ef8a66"/><path d="m77.9 17.7c.9-.7 2.8 2.5 1.8 3.2-.6.5-2.7-2.5-1.8-3.2z" fill="#febd9d"/><path d="m79.5 21.1c-.3 0-.7-.3-1.1-.8-.6-.8-1.2-2.2-.6-2.6.2-.1.4-.2.6-.1.7.3 1.5 1.5 1.6 2.5.1.4 0 .8-.3.9 0 .1-.1.1-.2.1zm-1.4-3.4c-.1 0-.2 0-.2.1-.4.3 0 1.5.7 2.3.4.5.8.8 1 .7.2-.2.2-.5.2-.7-.1-.9-.9-2.1-1.5-2.3 0 0-.1-.1-.2-.1z" fill="#ef8a66"/><path d="m78.6 16.7c.9-.7 2.8 2.5 1.8 3.2-.6.5-2.6-2.6-1.8-3.2z" fill="#febd9d"/><path d="m80.3 20.1c-.3 0-.7-.3-1.1-.8-.6-.8-1.2-2.2-.6-2.6.2-.1.4-.2.6-.1.7.3 1.5 1.5 1.6 2.5.1.4 0 .8-.3.9 0 0-.1.1-.2.1zm-1.4-3.4c-.1 0-.2 0-.2.1-.4.3 0 1.5.7 2.3.4.5.8.8 1 .7.2-.2.2-.5.2-.7-.1-.9-.9-2.1-1.5-2.3-.1-.1-.1-.1-.2-.1z" fill="#ef8a66"/><path d="m82.4 29.4-1.2-2.3s2.9-2 4.4-4.3l1 1.7s-1.2 5.2-4.2 4.9z" fill="#fff"/><path d="m99.8 40.6c-4.1-5.9-9.3-11.6-10-12.4-.4-.5-.9-.8-1.5-.8l-1.8-3.2s-2 3-5.2 4.5l1.6 3.2s-.5.4.6 2.7 5.4 11.2 7.6 13c5.1 4.2 14.1.8 8.7-7z" fill="#a7caf0"/><path d="m85.5 30.1-1.9-3v-.1h.1l1.8 2.9c.1.1.1.2 0 .2z" fill="#83addf"/><path d="m84.4 30.9s-.1-.1 0 0l-1.9-2.9v-.1h.1l1.8 2.9c.1 0 .1 0 0 .1 0-.1 0 0 0 0z" fill="#83addf"/><path d="m87.6 28.4c-.1 0-.1 0 0 0l-2-3.1v-.1h.1l1.9 3.1c.1 0 0 0 0 .1z" fill="#83addf"/><path d="m86.6 29.3-2-3.1v-.1h.1l1.9 3.1c.1.1.1.1 0 .1z" fill="#83addf"/><path d="m99.8 40.7c-4.4-6.2-9.9-12.2-10.1-12.5-.4-.5-.9-.7-1.5-.8h-.1l-1.8-3.2v-.1h.1l1.8 3.2c.6.1 1.2.4 1.6.9.2.3 5.7 6.3 10 12.5.1-.1.1 0 0 0z" fill="#83addf"/><path d="m137.8 96.2h-22.5v-17.7l20.1-.3c1.5 6.6 2.4 18 2.4 18z" fill="#683f1d"/><path d="m126.2 96.3c-.1-.1-.8-7.2-.9-7.9 0-.3-.3-.6-.6-.6-.4-.1-.9-.1-1.3 0 0 0-.1 0-.1-.1 0 0 0-.1.1-.1.4-.1.9-.1 1.3 0s.7.4.8.8c.1.7.8 7.7.7 7.9.1 0 .1 0 0 0z" fill="#91613d"/><path d="m139.4 53.2c-.4 5.9-1.6 15.1-2.4 21-.5 3.3-.8 5.6-.8 5.6s-14.4.6-18.3.5-4.3-.4-4.3-2 .1-21.2.1-21.2-19.3-6.8-22.1-9.1.5-9.9 7.7-8.4l5.4 1.2c5.4 1.2 11.2 2.4 18.4 3.4 7.8 1.1 12.7 1.2 16.1 3.4.3.3.4 2.5.2 5.6z" fill="#a7caf0"/><path d="m134.2 59.2c-3 1.9-3 4.6-1.9 6.7 2.7 4.8-5.2 1.7-5.6 7.7l11.5-2.7z" fill="#93bee5"/><path d="m143.6 55.1c-1.3-.8-2.7-1.4-4.2-1.8-2.5-.7-4.8-.5-6.4 1.1-.3.3-.5.6-.7 1-3.9 6.6-14.9 5.4-17-1.6-1.7-5.9-4.4-9.6-10.7-13 5.4 1.2 11.2 2.4 18.4 3.4 7.8 1.1 12.7 1.2 16.1 3.4 1.5.6 3.1 3.6 4.5 7.5z" fill="#c3dcf8"/><path d="m123.7 51.1c-.4 0-.9-.1-1.3-.2-.6-.1-1.2-.4-1.7-.7-1.1-.7-1.7-1.8-1.7-2.9 0-2.1 2.1-3.7 4.7-3.7s4.7 1.7 4.7 3.8c0 .9-.4 1.8-1.1 2.4-.4.4-.9.7-1.5.9s-1.2.4-1.8.4zm0-7.3c-2.5 0-4.6 1.6-4.6 3.6 0 1.1.6 2.1 1.7 2.8.5.3 1 .5 1.6.7.4.1.9.1 1.3.1h.3c.6 0 1.2-.2 1.8-.4.5-.2 1-.5 1.4-.9.7-.6 1-1.4 1.1-2.3 0-2-2.1-3.6-4.6-3.6zm0 5.7c-.4 0-.7 0-1.1-.1-.5-.1-.9-.3-1.4-.5-.7-.4-1.1-1-1.1-1.6 0-1.3 1.6-2.3 3.6-2.3s3.6 1 3.6 2.3c0 .5-.3 1.1-.8 1.5-.4.3-.8.5-1.2.6-.5.1-.9.2-1.4.2h-.2c0-.1 0-.1 0-.1zm0-4.4c-1.9 0-3.4.9-3.4 2.1 0 .6.4 1.1 1 1.5.4.2.8.4 1.3.5.4.1.7.1 1.1.1h.1c.5 0 .9-.1 1.4-.2.4-.1.8-.3 1.1-.5.5-.4.8-.8.8-1.3 0-1.3-1.5-2.2-3.4-2.2z" fill="#83addf"/><path d="m121.4 42.8c-.9.2-1.8.5-2.3 1.3s-.5 4.3-.1 4.7 1-1.4 3.7-2.3z" fill="#fff"/><path d="m124.9 46.6 2.7-4.3s1.4.8 1.7 2.1c.2 1.4-.4 5.9-1.5 4.7-.9-.7-.7-1.4-2.9-2.5z" fill="#fff"/><path d="m120.7 50.3c-.1 0-.1-.1-.1-.1l.5-1.4s.1-.1.1-.1.1.1.1.1l-.6 1.5c.1 0 .1 0 0 0z" fill="#83addf"/><path d="m122.4 51c-.1 0-.1-.1 0 0l.1-1.7s0-.1.1-.1c0 0 .1 0 .1.1z" fill="#83addf"/><path d="m124 51.1c-.1 0-.1 0 0 0l-.2-1.7s0-.1.1-.1.1 0 .1.1z" fill="#83addf"/><path d="m125.8 50.7-.6-1.6s0-.1.1-.1c0 0 .1 0 .1.1l.6 1.5c-.1.1-.1.1-.2.1z" fill="#83addf"/><path d="m127.3 49.8c-.1 0-.1 0 0 0l-.9-1.2v-.1h.1l.9 1.1c0 .1-.1.2-.1.2z" fill="#83addf"/><path d="m128 42.9c0 .5-1.1 4-4.1 4.3s-3.4-3-3.4-3.8c0-.3 0-1 .1-1.7.1-1.1.1-2.4.2-3.7v-.3c.3-7.7 7-6.2 6.6-2.1-.3 2.5.6 6.8.6 7.3z" fill="#febd9d"/><path d="m120.6 41.7c.1-1.1.1-2.4.2-3.7l3.7-.6c.1 2.3-1 4.3-3.9 4.3z" fill="#f4a789"/><path d="m135.5 70.3c-.1 0-.1 0 0 0-.1-.1-.1-.1-.1-.1s0 0 0-.1c-1.1-4.6-1.9-8.8-2.2-12.3 0 0 0-.1.1-.1 0 0 .1 0 .1.1.3 3.4 1.1 7.6 2.2 12.2-.1.2-.1.2-.1.3z" fill="#83addf"/><path d="m118.6 65c-.3-1.4.5-1.9 1.3-2.1-.1-.4.1-1.1 1-1.2s1.2.7 1.2.7 1.8-.6 2.3 1.2z" fill="#ddd"/><path d="m114.3 65.4 13.6-3.1 5.1 21.8-13.7 2.8z" fill="#f9f9f9"/><path d="m119.3 87c-.1 0-.1 0-.1-.1l-5-21.4v-.1s0 0 .1-.1l13.6-3.1c.1 0 .1 0 .1.1l5.1 21.8v.1s0 0-.1.1zm-4.9-21.5 5 21.2 13.5-2.7-5.1-21.6z" fill="#ddd"/><path d="m120.5 62.8c0 .3.3.6.6.6s.6-.3.6-.6-.3-.6-.6-.6c-.4 0-.6.3-.6.6z" fill="#f9f9f9"/><path d="m121.1 63.6c-.2 0-.4-.1-.5-.2s-.2-.3-.2-.5c0-.4.3-.7.7-.7.2 0 .4.1.5.2s.2.3.2.5c0 .3-.3.7-.7.7zm-.6-.8h.1c0 .1.1.3.1.4.1.1.2.1.4.1.3 0 .5-.2.5-.5 0-.1-.1-.3-.1-.4-.1-.1-.2-.1-.4-.1-.3 0-.5.2-.5.5z" fill="#ddd"/><path d="m147.7 74.7c0 .4 0 .9-.1 1.3 0 .1 0 .2-.1.3-.6 1.8-4.1 3.5-7.3 1.6-.3-.2-.6-.4-.8-.6-1.1-.9-1.9-2-2.5-3.2-.6-1.3-1.1-2.6-1.5-4v-.1c-1.4-5.5-2.4-11.4-2.4-15.8 0-5.3 1.6-8.6 6-6.7 1.5.6 3.2 3.6 4.6 7.5 1.2 3.4 2.2 6.8 2.9 10.3.8 3.7 1.2 7.1 1.2 9.4z" fill="#a7caf0"/><path d="m147.7 76c0 .2 0 .2-.1.3-.6 1.8-4.1 3.5-7.3 1.6-.3-.2-.6-.4-.8-.6 1-.5 2.1-.7 3.2-.6 6 .5-.4-6.1 3.8-11.4.8 3.6 1.2 7 1.2 9.3.1.5.1 1 0 1.4z" fill="#93bee5"/><path d="m143.6 55.1c-1.3-.8-2.7-1.4-4.2-1.8-2.5-.7-4.8-.5-6.4 1.1 0-5.3 1.6-8.6 6-6.7 1.6.5 3.2 3.5 4.6 7.4z" fill="#c3dcf8"/><path d="m120.9 74.8c-.4-.2-2.6-1.5-3.2-1.5s-2 .9-2 .9-2.7.2-3 .6c-.3.5.3 1.2.8 1.4s0 .7.1 1.1.6.7.6 1c.1.3-.2 1 .4 1.2s.2.6.5 1.1 2.2.4 7-.5z" fill="#febd9d"/><path d="m116.4 81c-.7 0-1.1-.1-1.3-.4-.1-.2-.1-.4-.2-.6 0-.2 0-.4-.3-.5-.5-.2-.5-.7-.5-1 0-.1 0-.2 0-.3s-.1-.2-.2-.3c-.2-.2-.3-.4-.4-.6 0-.2 0-.3.1-.5.1-.3.1-.5-.1-.6-.3-.2-.8-.6-.9-1-.1-.2 0-.4.1-.5.3-.5 2.7-.7 3-.7.2-.1 1.4-.9 2-.9 0 0 .1 0 .1.1 0 0 0 .1-.1.1-.6 0-1.9.9-1.9.9-1 .1-2.7.3-2.9.6-.1.1-.1.2 0 .4.1.4.5.7.8.9.4.2.3.5.2.8 0 .1-.1.3-.1.4 0 .2.2.4.3.5s.3.3.3.4v.3c0 .4 0 .7.4.8s.4.4.5.6c0 .2 0 .3.1.5s.5.3 1.1.3c-.1.1 0 .2-.1.3z" fill="#ef8a66"/><path d="m120.6 74.3 1 6.3 2-.3-.6-6.1z" fill="#fff"/><path d="m147.7 76.1c0 .1 0 .2-.1.3-.5 2.1-2.8 3.5-9.1 3.9-.5 0-1.1.1-1.6.1-7.4.4-13.8.3-13.8.3l-1-6.6c3.4-1 9-2.9 13.3-3.8 1.8-.4 3.4-.6 4.6-.5 1.3.1 2.7.3 3.9.6.3.1.7.2 1 .4 1.5.7 2.5 1.8 2.7 3.5v.4c.2.4.2.9.1 1.4z" fill="#a7caf0"/><path d="m123.1 80.8c-.1 0-.1-.1 0 0l-1.1-6.7s0-.1.1-.1c.8-.2 1.8-.6 2.9-.9 3.2-1 7.2-2.2 10.5-2.9 2-.4 3.5-.6 4.6-.5 0 0 .1 0 .1.1 0 0 0 .1-.1.1-1.1-.1-2.6.1-4.6.5-3.3.7-7.3 1.9-10.5 2.9-1 .3-2 .6-2.8.9l.9 6.6c.1-.1 0 0 0 0z" fill="#83addf"/><path d="m122.2 74.9c-.1-.1-.1-.2 0-.2l3.9-.6s.1 0 .1.1c0 0 0 .1-.1.1z" fill="#83addf"/><path d="m122.4 76.2c-.1-.1-.1-.2 0-.2l3.8-.5c.1 0 .1 0 .1.1 0 0 0 .1-.1.1z" fill="#83addf"/><path d="m122.6 77.2c-.1 0-.1-.1 0 0-.1-.1-.1-.2 0-.2l3.8-.3c.1 0 .1 0 .1.1 0 0 0 .1-.1.1z" fill="#83addf"/><path d="m122.8 78.6c-.1 0-.1 0 0 0-.1-.1-.1-.2 0-.2l3.6-.3s.1 0 .1.1c0 0 0 .1-.1.1z" fill="#83addf"/><path d="m123 79.8c-.1 0-.1-.1 0 0-.1-.1-.1-.2 0-.2l3.6-.4s.1 0 .1.1c0 0 0 .1-.1.1z" fill="#83addf"/><path d="m115.7 74.2c-.1-.1-.1-.2 0-.2 1-.1 1.8-.1 1.9-.1 0 0 .1 0 .1.1 0 0 0 .1-.1.1 0 0-.9 0-1.9.1z" fill="#ef8a66"/><path d="m147.7 76.1c0 .1 0 .2-.1.3-.5 2.1-2.8 3.5-9.1 3.9-.5 0-1.1.1-1.6.1 1.4-3.4 4.5-3.7 5.8-3.6 4 .4 2.5-2.5 2.3-6 1.5.7 2.5 1.8 2.7 3.5v.4c.1.4.1.9 0 1.4z" fill="#93bee5"/><path d="m126.9 30.4c-.1 1.1-.4 2.2-.8 3.2-.6 1.5-1.5 2.9-3.1 2.9-.2 0-.3 0-.5 0l-4.1-1.7s0-.1.1-.2c.3-1 .7-2 1.3-2.9 0-.1.1-.1.1-.2 1-1.5 2-2.7 2-2.7s.1-1.4 1.2-1.6 4.1 1.1 3.8 3.2z" fill="#febd9d"/><path d="m126.1 33.7c-.6 1.5-1.5 2.9-3.1 2.9-1-.6-1.3-2-.7-3s2-1.3 3-.7c.4.1.6.4.8.8z" fill="#f4af90"/><path d="m120 32.7c0 .9-.7 1.7-1.6 1.8.3-1 .7-2 1.3-2.9.2.4.3.8.3 1.1z" fill="#f4af90"/><path d="m129.6 30.7c-.2.5-.8 2.2-1.2 3.1-.1.4-.2.6-.2.6l-1-.4-.7-.3-.3-.1v.3c-.1.7-.2 1.4-.4 2-.2.8-.6 1.6-1.1 2.3-1.4 1.8-4.9 1.6-6.5.2-1.1-1-.9-2.8.1-4.7.5-.9 1-1.7 1.7-2.4 0 0-.8 1.9-.9 2.3-.2.5.4.5.7 0 .2-.4.7-.7 1.9-.4s1.8 1 1.6 1.9c-.1.5.9.7 1.6 0 .1-.1.1-.1.2-.2s.2-.3.3-.4c.7-1.4 1.1-3.5 1.1-4.3-.8 0-1.4-.5-1-1.3-.9.4-1.6-.3-1.4-1.1-.4.6-1.3.6-1.4-.1l-.7.9c-.1-.4-.2-.7-.2-1.1 0-1.1 1-1.5 1.8-1.3.1-.8 2-1 2.2.2.4-.8 1.8-.6 1.8.6.5-.3 1-.1 1.3.4.1.3.2.6 0 .9.6-.1 1 .7.5 1.3-.2.1.5.4.2 1.1z" fill="#bf8228"/><path d="m123 31.7c0 .2.1.3.3.3s.3-.1.3-.3-.1-.3-.3-.3-.3.1-.3.3z" fill="#683f1d"/><path d="m121 31c0 .2.1.3.3.3s.3-.1.3-.3-.1-.3-.3-.3c-.2 0-.3.1-.3.3z" fill="#683f1d"/><path d="m123.6 30.1c-.2.5 1.4 1.1 1.5.7 0-.2-1.3-1.5-1.5-.7z" fill="#bf8228"/><path d="m121.3 29.3c-.1.3 1.2.8 1.4.3s-1.3-.5-1.4-.3z" fill="#bf8228"/><path d="m127.2 34-1-.4c-.1.8-.2 1.6-.4 2.3-.3 0-.7-.1-1-.7.2-.2.3-.4.4-.6.7-1.4 1.1-3.5 1.1-4.3-.8 0-1.4-.5-1-1.3-.9.4-1.6-.3-1.4-1.1-.4.6-1.3.6-1.4-.1l-.7.9c-.1-.4-.2-.7-.2-1.1.4-.4.9-.6 1.3-.5 0 0 1.1.3 1.5-.3-.2.9.7 1.7 1.7 1.3 0 0 .4 1.6 1.6 1.5 0 0-.1 1.4.6 1.5.6.3-.5 1.9-1.1 2.9z" fill="#b57724"/><path d="m126.2 34c-.1.7-.2 1.4-.4 2-.2.8-.6 1.6-1.1 2.3-1.4 1.8-4.9 1.6-6.5.2-1.1-1-.9-2.8.1-4.7.1 3.2 3.2 5.1 6.5 1.4l.2-.2c.3-.3.7-.7 1.2-1z" fill="#b57724"/><path d="m128.4 33.8c-.1.4-.2.6-.2.6l-1-.4-.7-.3c1.1-.7 1.6-.3 1.9.1z" fill="#b57724"/><path d="m125.8 35.9c.2-.7.3-1.5.4-2.2.6-.6 1.7-.5 2.2.1.1.2.2.4.3.6.2 1.4-1 2.8-2.9 1.5z" fill="#febd9d"/><path d="m127.3 36.5c-.5 0-1.1-.2-1.5-.5v-.1h.1c.4.3.9.5 1.4.5 0-.1 0 0 0 .1z" fill="#ef8a66"/><path d="m120.5 32.5c-.1 0-.1-.1 0 0 0-.7.4-.7.9-.8h.1c.6-.1 1-.6.9-1.1 0 0 0-.1.1-.1 0 0 .1 0 .1.1.1.6-.4 1.2-1.1 1.3h-.2c-.4 0-.6 0-.8.6.1-.1 0 0 0 0z" fill="#ef8a66"/><path d="m128.1 34.9s-.1-.1 0 0c-.1-.1-.2-.2-.2-.2-.2-.2-.4-.2-.6-.2s-.4.1-.6.3h-.1v-.1c.2-.2.4-.3.7-.3s.5.1.7.3c.1.1.1.2.2.2 0-.1 0-.1-.1 0z" fill="#ef8a66"/><path d="m127 35.7c-.1 0-.2 0-.3 0 0 0-.1-.1-.1-.1s.1-.1.1-.1c.3.1.5 0 .6-.1.1-.2.2-.4.1-.6s-.3-.3-.5-.2c0 0-.1 0-.1-.1 0 0 0-.1.1-.1.3 0 .6.1.7.3s.1.6-.1.8c-.1.1-.3.2-.5.2z" fill="#ef8a66"/><path d="m122.5 39.1c-.6 0-1.1-.1-1.6-.6-1.1-1-2.3-1.2-3.2-.6h-.1v-.1c.9-.6 2.3-.4 3.4.6 1.3 1.2 3.5 0 3.6 0h.1v.1c-.1.1-1.1.6-2.2.6z" fill="#9b621f"/><path d="m122.8 37.6c-.5 0-1.1-.1-1.5-.5-1.5-1.1-3.8.3-3.8.3h-.1v-.1c.1-.1 2.4-1.5 4-.3 1.5 1.1 3.6-.1 4.2-.5h.1v.1c-.5.3-1.7 1-2.9 1z" fill="#9b621f"/><path d="m122.3 36.4c-.4 0-.9-.2-1.4-.6-1.1-1.2-2.9-.3-3.4.1h-.1v-.1c.5-.5 2.4-1.4 3.6-.1 1.1 1.2 2.6.1 2.6.1h.1v.1c.1 0-.6.5-1.4.5z" fill="#9b621f"/><path d="m122.2 34.7c-1.2 0-2.5-.5-2.7-.8v-.1h.1c.2.3 2.3 1 3.5.6 0 0 .1 0 .1.1 0 0 0 .1-.1.1-.2.1-.6.1-.9.1z" fill="#9b621f"/><path d="m122.5 28c-.2-.4 0-.8.2-1.2.2-.3.5-.5.7-.5.1 0 .1 0 .1.1 0 0 0 .1-.1.1-.2 0-.4.2-.6.4-.2.3-.3.7-.3 1 .1 0 .1 0 0 .1z" fill="#9b621f"/><path d="m123.9 28.1c-.1 0-.1-.1-.1-.1.1-.5.7-1.8 1.7-1.9.1 0 .1 0 .1.1 0 0 0 .1-.1.1-.8 0-1.4 1.3-1.6 1.8z" fill="#9b621f"/><path d="m125.3 29.2c-.1 0-.1-.1-.1-.1.2-.9.8-2.1 2-2.6h.1v.1c-1.1.5-1.7 1.7-2 2.6z" fill="#9b621f"/><path d="m126.3 30.5c-.1 0-.1-.1 0 0 .1-1.2 1.6-2.2 2.5-2.1 0 0 .1 0 .1.1s0 .1-.1.1c-.8-.1-2.3.8-2.5 1.9.1-.1 0 0 0 0z" fill="#9b621f"/><path d="m126 32.1c0-.1 0-.1 0-.1.9-.8 2.7-1.6 3.7-1.7.1 0 .1 0 .1.1 0 0 0 .1-.1.1-.9 0-2.6.7-3.7 1.6.1 0 .1 0 0 0z" fill="#9b621f"/><path d="m120.6 34.2c.9.2 1.9.1 1.9.1s-.2 1.4-1.2 1.2c-1-.1-.7-1.3-.7-1.3z" fill="#fff"/><path d="m121.5 35.6c-.1 0-.1 0-.2 0-.3 0-.5-.2-.6-.4-.3-.4-.2-1.1-.1-1.1 0 0 .1-.1.1-.1.6.1 1.3.1 1.6.1s.3 0 .3.1v.1c-.2.9-.6 1.3-1.1 1.3zm-.8-1.3c0 .2-.1.6.1.9.1.2.3.3.5.3.5.1.9-.3 1-1.1h-.1c-.3 0-.9 0-1.5-.1z" fill="#ef8a66"/><path d="m95 38.5c.6-1.7 1.4-3.4 1.8-3.2.6.4-.6 3.7-.6 3.7z" fill="#b25e47"/><path d="m96.3 39.1-1.3-.6v-.1c.3-.7 1.1-3.1 1.7-3.3h.2c.3.2.3.9 0 2.1-.3.9-.6 1.8-.6 1.9zm-1.2-.7 1 .4c.5-1.3 1-3.3.6-3.5 0 0 0 0-.1 0-.2.1-.8 1.4-1.5 3.1z" fill="#934735"/><path d="m94.3 38.9c0-.1.4-5 1.1-4.9 1 .1.2 5 .2 5z" fill="#b25e47"/><path d="m95.6 39.1-1.4-.1v-.1s.3-4.3 1-4.9c.1-.1.2-.1.2-.1.1 0 .2.1.3.2.6.8 0 4.7-.1 5zm-1.3-.3 1.1.1c.1-.6.6-4 0-4.7 0-.1-.1-.1-.2-.1 0 0 0 0-.1 0-.4.4-.7 4.1-.8 4.7z" fill="#934735"/><path d="m93.1 39.5c0-4.9.1-6.2.7-6.2.8 0 .9 5.6.9 5.6z" fill="#b25e47"/><path d="m93 39.7v-.1c0-4.2 0-5.7.4-6.1.1-.1.2-.1.3-.1.9 0 1 4.8 1 5.7v.1zm.7-6.2c-.1 0-.1 0-.2.1-.4.4-.4 2.1-.4 5.9l1.4-.5c0-2.3-.2-5.5-.8-5.5z" fill="#934735"/><path d="m95.8 39.2c-.1 2.3-.2 3.5-.2 3.5s-2.1 1.1-2.2-1.6 2.4-1.9 2.4-1.9z" fill="#b25e47"/><path d="m94.7 43.1c-.2 0-.4 0-.6-.2-.5-.3-.7-.9-.8-1.8 0-.9.2-1.5.6-1.8.7-.6 1.9-.2 1.9-.2h.1v.1c-.1 2.3-.2 3.5-.2 3.5-.1.2-.5.4-1 .4zm.3-3.9c-.3 0-.7.1-.9.3-.4.3-.6.9-.6 1.7 0 .9.3 1.4.7 1.7.5.3 1.2 0 1.3-.1 0-.2.1-1.4.2-3.4-.1-.1-.4-.2-.7-.2z" fill="#934735"/><path d="m84 53.7c-2.7 4.1-6.1 9.7-3.4 11.5s6.3 1.1 8.5-3.9 4.8-13.7 5.3-14.5c.5-.9 1.8-1.9 2.6-3.5s1.2-1.7.9-2.2-.9-.3-1.3.2-1.3 1.5-1.8 1.2-.8-.9-.8-1.6.4-1.5 1.3-1.3c.8.3 1.2 1.3 1.9 1 .7-.4-.8-1.9-1.3-2.3-.5-.5-.9-.1-1.8.1s-1.1.3-1.6 1.4c-.4 1-2.1 4.4-2.4 5.1-.3.5-3.6 4.9-6.1 8.8z" fill="#b25e47"/><path d="m97 43.3c-.1 0-.1 0 0 0-.1 0-.1-.1-.1-.1.3-.6.5-1 .7-1.3.3-.5.3-.6.2-.8-.1-.1-.2-.2-.4-.2-.3 0-.6.2-.8.5-.4.6-1.3 1.6-1.9 1.3-.5-.3-.8-.9-.8-1.7 0-.5.2-1 .5-1.2.2-.2.5-.2.9-.1s.6.4.9.6c.4.3.6.6 1 .4.1 0 .1-.1.1-.2.1-.5-.9-1.5-1.5-2-.4-.3-.7-.2-1.3 0-.1.1-.3.1-.5.2l-.2.1c-.7.2-1 .3-1.4 1.3 0 0-.1.1-.1 0 0 0-.1-.1 0-.1.4-1 .7-1.1 1.5-1.4l.2-.1c.2-.1.3-.1.5-.2.6-.2 1-.4 1.4 0 .3.2 1.6 1.5 1.5 2.1 0 .1-.1.3-.2.3-.5.3-.8-.1-1.2-.4-.2-.2-.5-.5-.8-.6s-.5-.1-.7.1c-.3.2-.4.6-.4 1.1 0 .8.3 1.3.7 1.5.5.3 1.4-.7 1.7-1.2.2-.3.6-.5.9-.5.2 0 .4.1.5.3.2.3.1.5-.2 1-.1.3-.4.7-.7 1.3z" fill="#934735"/><path d="m81.9 57c-.1 0-.1-.1-.1-.1.4-.7.9-1.4 1.4-2.2 0 0 .1-.1.1 0 0 0 .1.1 0 .1-.5.7-.9 1.5-1.4 2.2z" fill="#934735"/><path d="m41.9 57.5c-.7 1.2.8 2 2.2 3s1.8-3.2 1.8-3.2-3.6-.4-4 .2z" fill="#f7ad2b"/><path d="m83.7 52.5c.5.4-.2 1.5-1.6 2.8l-1.1-1.4s1.6-1.8 2.7-1.4z" fill="#f7ad2b"/><path d="m81.4 52.8c3.1 3.3 6.8 7.7 4.9 11s-6.6 1.6-9.4-1c0 .1-2.2-4.3 4.5-10z" fill="#b25e47"/><path d="m44.1 57.4c-1.2 2.7-4.7 8.7-1 11.2s8.2-6.2 8.2-6.2-1.4-5.2-7.2-5z" fill="#b25e47"/><path d="m83.7 52.5c-2.5 1.9-4.5 4.4-5.8 7.3-.4 1-.8 2-1 3.1-.7-.5-2.4-1.8-2.4-1.8-.1.8-.3 1.7-.5 2.7-.5 2.7-1.1 5.4-1.1 5.4h-16.9l-.3-1.2-2.2-8.8-2.1 3.2c0-.1-.1-.1-.1-.1-2.5-2.7-9.2-4.7-9.2-4.7 1.8-3.1 4-6 6.5-8.5.7-.7 1.5-1.5 2.3-2.1 1.1-.9 2.4-1.6 3.7-2.2 1.5-.7 3-1.2 4.6-1.6 0 0 0-3.6.4-7.9.2-1.9 4.1-2.3 5 1s1.6 5.4 1.6 5.4c1-.1 2-.2 3-.2 1.3 0 2.7.3 3.8.9.6.3 1.8 1.4 3.2 2.7 3.1 2.9 7.5 7.4 7.5 7.4z" fill="#fed81d"/><path d="m77.9 59.8c-.4 1-.8 2-1 3.1-.7-.5-2.4-1.8-2.4-1.8.5-2.5.8-5 .7-7.6 0-1.1-.3-2.2-.8-3.2 1.6.9 2.9 1.9 2.1 4-.6 1.9-.5 5.1 1.4 5.5z" fill="#fcc71f"/><path d="m61.4 68.6-5.7-.6-2.2-8.8c.6-1 1.1-2.1 1.6-3.1 2.3 2.7-2.5 5.9 5 7.6 3.7.7 1.3 4.9 1.3 4.9z" fill="#fcc71f"/><path d="m76 44.9c-2 .2-3.9 1.7-5.1 5.8-2.2 7.3-10.2 6.5-13 1.4-2.2-4-4.8-4.4-9.5-3.1.7-.7 1.5-1.5 2.3-2.1 1.1-.9 2.4-1.6 3.7-2.2 1.5-.7 3-1.2 4.6-1.6 0 0 0-3.6.4-7.9.2-1.9 4.1-2.3 5 1s1.6 5.4 1.6 5.4c1-.1 2-.2 3-.2 1.3 0 2.7.3 3.8.9.6.3 1.8 1.3 3.2 2.6z" fill="#ffe05c"/><path d="m69 41.3c0 2.5-2.1 4.1-4.5 4.5s-6.5.1-10.1-1.1c1.5-.7 3-1.2 4.6-1.6 0 0 0-3.6.4-7.9.2-1.9 4.1-2.3 5 1 .2.7.4 1.4.6 2 .4 1.3.7 2.3.8 2.8.1.4.2.5.2.5 1-.2 2-.2 3-.2z" fill="#b25e47"/><path d="m65.9 40.9c-2.2.2-3.4-1.1-3.4-2.8h2.6c.3 1.3.6 2.3.8 2.8z" fill="#914839"/><path d="m74.9 96.2h-23.3s-.9-11.6.5-17.7c.6-2.5 1.3-4.9 2.3-7.2.4-1.1.9-2.1 1.4-3.1l17.2.9c.2.7.3 1.4.5 2.2 2 10.4 1.4 24.9 1.4 24.9z" fill="#a7caf0"/><g clip-path="url(#a)" fill="#fff"><path d="m55.6 82.7c-.5 0-1.1-.2-1.5-.6-.9-.8-1-2.3-.1-3.2.4-.4 1-.7 1.6-.7s1.2.2 1.6.6.7 1 .7 1.6-.2 1.2-.6 1.6-1 .7-1.7.7zm-1.5-3.7c-.8.8-.7 2.1.1 2.9s2.1.7 2.9-.1.7-2.1-.1-2.9-2.1-.7-2.9.1z"/><path d="m57.8 97.3c-.6 0-1.2-.2-1.6-.7-.9-.9-.9-2.3 0-3.2s2.3-.9 3.2 0 .9 2.3 0 3.2c-.4.5-1 .7-1.6.7zm0-4.3c-.5 0-1 .2-1.4.6-.8.8-.8 2.1 0 2.9s2.1.8 2.9 0 .8-2.1 0-2.9c-.4-.4-1-.6-1.5-.6z"/><path d="m66.7 83.1c-.6 0-1.2-.2-1.6-.7-.9-.9-.9-2.3 0-3.2s2.3-.9 3.2 0 .9 2.3 0 3.2c-.4.5-1 .7-1.6.7zm0-4.3c-.5 0-1 .2-1.4.6-.8.8-.8 2.1 0 2.9s2.1.8 2.9 0 .8-2.1 0-2.9c-.4-.4-1-.6-1.5-.6z"/><path d="m68.5 98c-1 0-2-.7-2.2-1.8-.3-1.2.5-2.4 1.7-2.7.6-.1 1.2 0 1.7.3s.9.8 1 1.4c.3 1.2-.5 2.4-1.7 2.7-.1 0-.3.1-.5.1zm-.4-4.3c-1.1.3-1.8 1.4-1.5 2.5s1.4 1.8 2.5 1.5 1.8-1.4 1.5-2.5c-.1-.5-.5-1-.9-1.3-.6-.2-1.1-.3-1.6-.2z"/><path d="m65.6 74.6c-.4 0-.8-.1-1.2-.3-.5-.3-.9-.8-1-1.4s0-1.2.3-1.7.8-.9 1.4-1 1.2 0 1.7.3.9.8 1 1.4c.3 1.2-.5 2.4-1.7 2.7-.2 0-.3 0-.5 0zm-.5-4.3c-.5.1-1 .5-1.3.9-.3.5-.4 1-.2 1.5s.5 1 .9 1.3c.5.3 1 .4 1.5.2 1.1-.3 1.8-1.4 1.5-2.5-.1-.5-.5-1-.9-1.3-.4-.1-1-.2-1.5-.1z"/><path d="m62.5 89.2c-.8 0-1.4-.6-1.4-1.4s.6-1.4 1.4-1.4 1.4.6 1.4 1.4-.6 1.4-1.4 1.4zm0-2.6c-.7 0-1.2.5-1.2 1.2s.5 1.2 1.2 1.2 1.2-.5 1.2-1.2-.5-1.2-1.2-1.2z"/><path d="m74.7 85.9c-.8 0-1.4-.6-1.4-1.4s.6-1.4 1.4-1.4 1.4.6 1.4 1.4c.1.8-.6 1.4-1.4 1.4zm0-2.6c-.7 0-1.2.5-1.2 1.2s.5 1.2 1.2 1.2 1.2-.5 1.2-1.2-.5-1.2-1.2-1.2z"/><path d="m73.8 76.6c-.8 0-1.4-.6-1.4-1.4s.6-1.4 1.4-1.4 1.4.6 1.4 1.4-.6 1.4-1.4 1.4zm0-2.6c-.7 0-1.2.5-1.2 1.2s.5 1.2 1.2 1.2 1.2-.5 1.2-1.2-.6-1.2-1.2-1.2z"/><path d="m51.9 89.9c-.8 0-1.4-.6-1.4-1.4s.6-1.4 1.4-1.4 1.4.6 1.4 1.4c0 .8-.6 1.4-1.4 1.4zm0-2.6c-.7 0-1.2.5-1.2 1.2s.5 1.2 1.2 1.2 1.2-.5 1.2-1.2-.6-1.2-1.2-1.2z"/><path d="m57.8 75.3c-.8 0-1.4-.6-1.4-1.4s.6-1.4 1.4-1.4 1.4.6 1.4 1.4-.6 1.4-1.4 1.4zm0-2.6c-.7 0-1.2.5-1.2 1.2s.5 1.2 1.2 1.2 1.2-.5 1.2-1.2-.5-1.2-1.2-1.2z"/></g><path d="m65 50.3c-3.5-2.1-6.4-7.1-6.4-7.1l.2-.1s2.8 4.8 6.2 6.9c.3-.5 1.8-3.3 1.5-8.6h.2c.2 3.1-.3 5.3-.7 6.6-.4 1.4-.9 2.1-1 2.3z" fill="#683f1d"/><path d="m64 50.3c0 .6.4 1 1 1s1-.4 1-1-.4-1-1-1c-.5 0-1 .4-1 1z" fill="#fff"/><path d="m74.5 61.1c-.1 0-.1-.1-.1-.1.5-2.5.8-5 .7-7.6 0-1.1-.3-2.2-.8-3.2-.1-.1-.1-.2-.2-.3-.4-.8-.7-1.6-.8-2.6 0 0 0-.1.1-.1 0 0 .1 0 .1.1.1 1 .4 1.7.8 2.5.1.1.1.2.2.3.5 1 .8 2.1.8 3.3 0 2.6-.2 5.2-.8 7.7z" fill="#f7ad2b"/><path d="m53.5 59.3c-.1 0-.1-.1 0 0-.1 0-.1-.1-.1-.1.6-1 1.1-2 1.6-3.1.2-.4.3-.7.3-.7s.1-.1.1 0c0 0 .1.1 0 .1 0 0-.1.3-.3.7-.4.9-1 2-1.6 3.1 0-.1 0 0 0 0z" fill="#f7ad2b"/><path d="m73.4 71.3h-19.1c.4-1.1.9-2.1 1.4-3.1l17.3.9c.1.7.3 1.4.4 2.2z" fill="#83addf"/><path d="m65.8 76.6-.1-5.3s0-.1.1-.1c0 0 .1 0 .1.1l-.1 5.3c.1-.1.1 0 0 0z" fill="#83addf"/><path d="m66.2 76.9c-.1-.1-.1-.1 0-.2l.1-.1c.4-.2.7-.4.7-.6.1-.3.3-3.9.3-3.9s0-.1.1-.1c0 0 .1 0 .1.1s-.3 3.6-.3 3.9c-.1.3-.3.5-.8.8l-.2.1c.1 0 .1 0 0 0z" fill="#83addf"/><path d="m65.6 96.3c-.1 0-.1 0 0 0-.1-.7.1-14.5.2-15.2.1-.3.4-.6 1.7-1.3h.1v.1c-1.2.7-1.5 1-1.6 1.2-.2.6-.3 15-.4 15.2z" fill="#83addf"/><path d="m37.4 43.7c1.1-.4 2.4-.4 4 .4 1.9.9 3.5 3.2 2.7 6.4-.1.5-2.1 1.5-2.4 1.3-.4-.2 2.2-6.7-4.3-8.1z" fill="#fff"/><path d="m58 35.2c-1-.1-1.7.3-2.1 1.2s-1.1 1.7-1.1 1.7 1.2.5 2.4-.9c1.2-1.3.8-2 .8-2z" fill="#fed81d"/><path d="m58.8 35.6c-1.1.3-1.7.8-1.9 2.2s-.1 2-.3 2.6c0 0 1.5-.3 2.2-1.7s.5-2.2 0-3.1z" fill="#fed81d"/><path d="m60.2 28.1s-1.1 2.4-1.1 4.4c0 .5.1.9.2 1.3l-1.2.2c-1.1 1-3 .7-2.3-.6-1.1.7-2.6-.3-1.9-1.3-.9.2-1.3-1.2-.2-1.6-.9-.1-1.1-1.8.1-1.9-.3-.3-.3-.9 0-1.2.1-.1.3-.2.5-.2.3 0 .5.1.7.3-.5-2 1.8-2.6 2.5-1.6.1-.8 1.7-.9 1.9.2 1.3-.7 2.1.9.8 2z" fill="#604730"/><path d="m59.3 33.9-1.2.1c-1.1 1-3 .7-2.3-.6-1.1.7-2.6-.3-1.9-1.3-.9.2-1.3-1.2-.2-1.6-.9-.1-1.1-1.8.1-1.9-.3-.3-.3-.9 0-1.2.1-.1.3-.2.5-.2-.1.7.2 1.7.9 1.8-.9.3-.9 1.4 0 1.8-.6.6.3 1.5 1 1 0 .7 1 1.9 2.8.7.1.5.2 1 .3 1.4z" fill="#473526"/><path d="m66.1 39.2c-3.3.5-6.2-3.3-6.2-3.3-1.5.5-2.7-.6-2.2-1.8.1-.2.2-.4.4-.5.2-.1.3-.2.5-.2h.4c.6.1 1.1.4 1.3.9.1.2.8.1.5-.6s-.6-.6-.6-.6c.5-.1.1-1.2-.5-1 .5-.2.6-1.1.1-1.4.5 0 1.1-.2.9-1.1.3.3.8.4 1.1.1.2-.1.3-.3.3-.5.3.3.8.3 1 0 .1-.1.2-.3.2-.5.1.3.4.4.7.2.6.7 1.2 1.5 1.7 2.3.3.4.5.9.8 1.3 2 3.3 2.5 6.3-.4 6.7z" fill="#b25e47"/><path d="m62.1 33c-.1.4-.9.5-1.6.3s-1.3-.8-1.2-1.2.9-.5 1.6-.3c.8.3 1.3.8 1.2 1.2z" fill="#a0503d"/><path d="m66.8 32.5c-.3.2-.6.3-.9.2-.3-.2-.3-.8.1-1.5.3.4.5.8.8 1.3z" fill="#a0503d"/><path d="m59.1 33.4c-.1 0-.3 0-.4 0-.2 0-.4.1-.5.2-1-3.1 1.7-4.7 1.7-4.7-1.1 1.6-.9 3.7-.8 4.5z" fill="#fff"/><path d="m64.5 31.1c0 .2.1.3.3.3s.3-.1.3-.3-.1-.3-.3-.3-.3.1-.3.3z" fill="#683f1d"/><path d="m62.5 31.7c0 .2.1.3.3.3s.3-.1.3-.3-.1-.3-.3-.3c-.2 0-.3.2-.3.3z" fill="#683f1d"/><path d="m64.5 28.6c-.1.1-.1.2-.3.3-.3.2-.6.1-.7-.2 0 .4-.4.7-.8.7-.2 0-.4-.1-.5-.2-.1.4-.5.8-.9.7-.2 0-.4-.1-.5-.3.2.8-.4 1.1-.9 1.1.5.3.3 1.2-.1 1.4.5-.1.9.9.5 1 0 0 .3-.1.6.6.3.8-.4.8-.5.6-.3-.7-1-1-1.7-.9-.1-.6-.2-1.3-.1-1.9.1-1 .6-1.8 1.3-2.5-.5-.8.4-1.8 1.2-1.2-.1-.7 1.1-1.2 1.6-.3.3-.8 1.4-.3 1.3.3.3-.3.8.2.5.8z" fill="#604730"/><path d="m65.6 32.8c-.1 0-.1 0 0 0-.2-.6-.5-.7-.9-.8s-1-.3-1.4-1.2v-.1h.1c.4.8.8 1 1.3 1.1.4.1.8.2.9.9.1.1 0 .1 0 .1z" fill="#934735"/><path d="m62.8 33.5c1.3.4 2.2.1 2.4 0 0 0 .1 1.1-1 1.1-.7-.1-1.3-.5-1.4-1.1z" fill="#fff"/><path d="m64.3 34.6h-.1c-.7 0-1.3-.5-1.5-1.1v-.1h.1c1.3.4 2.2.1 2.3 0h.1v.1s.1.6-.3.9c-.1.1-.3.2-.6.2zm-1.4-1c.2.5.7.8 1.2.8.3 0 .6 0 .7-.2.2-.2.2-.5.2-.6-.3.1-1.1.3-2.1 0z" fill="#934735"/><path d="m60.1 35.2c-.1 0-.1 0 0 0-.2-.7-.6-.9-1-.9-.3 0-.6.2-.6.5 0 0-.1.1-.1.1s-.1-.1-.1-.1c.1-.4.4-.6.8-.6.4 0 .9.3 1.1 1z" fill="#934735"/><path d="m59.4 35.6c-.3-.1-.4-.2-.5-.4s0-.5.2-.6c.2-.2.4-.2.7-.1 0 0 .1.1 0 .1 0 0-.1.1-.1 0-.2-.1-.4-.1-.5.1-.1.1-.2.3-.1.4 0 .1.1.3.3.3.1.1.1.1 0 .2.1 0 .1 0 0 0z" fill="#934735"/><path d="m61.4 31c-.1.4 1.4-.4 1.1-.9s-1 .6-1.1.9z" fill="#604730"/><path d="m65 29.6c.3.2-1.3.6-1.4 0 0-.5 1.2-.2 1.4 0z" fill="#604730"/><path d="m51.2 62.7c-1.2-.2-2.3-.4-3.5-.5 0 0-.1 0-.1-.1 0 0 0-.1.1-.1 1.2.1 2.4.3 3.5.5.1 0 .1.1 0 .2z" fill="#934735"/><path d="m47.7 62.1c-4.2-.4-7.2 3.1-5.4 5.8 2.4 3.4 17.4 2.5 19 2.5 1 0 .9.7 2.4.8.9.1 2.3.1 2.6-.1.2-.1.4-.4.5-.6 0 0 .9.3 1.2-.6 0 0 .9.2 1-1 0 0 .5.7 1 .4.6-.3.6-.7.2-1.2s-2-2.4-2.5-2.6-4.6.5-5.3.4c-3.4-.7-8.2-3.2-14.7-3.8z" fill="#b25e47"/><path d="m65.5 71.4h-.1s-.1 0-.1-.1c0 0 0-.1.1-.1.3 0 .6 0 .9-.1.2-.1.4-.3.5-.5 0 0 .1-.1.1 0 0 0 .3.1.6 0 .2-.1.4-.3.5-.6 0 0 .1-.1.1-.1s.3.1.5-.1.3-.4.4-.8c0 0 0-.1.1-.1h.1s.5.6.9.4c.2-.1.4-.3.4-.4 0-.2 0-.4-.2-.6-.4-.6-2-2.3-2.5-2.5 0 0-.1-.1-.1-.1s.1-.1.1-.1c.6.2 2.3 2.1 2.6 2.6.2.3.3.6.2.8s-.2.4-.5.5c-.4.2-.8-.1-1-.3-.1.4-.2.6-.4.8-.3 0-.5 0-.6 0-.1.3-.3.5-.5.6-.3.1-.6.1-.7 0-.1.2-.3.4-.5.6-.4.1-.7.2-.9.2z" fill="#934735"/><path d="m69.1 69.1-1.3-1.4v-.1h.1l1.2 1.3c.1.1.1.1 0 .2.1 0 .1 0 0 0z" fill="#934735"/><path d="m68 70-1.3-.8s-.1-.1 0-.1c0 0 .1-.1.1 0l1.3.8s0 0-.1.1z" fill="#934735"/><path d="m66.8 70.6-.9-.3s-.1-.1-.1-.1.1-.1.1-.1l.9.3c.1.1.1.1 0 .2z" fill="#934735"/><path d="m43.9 22.4-.9.1-1.1.2.7-.8.7-.7z" fill="#fff"/><path d="m40.3 50.1c2.9 1.8 5.5-.2 6.2-3.8 1.1-5.4 2-19 2-19s1.5-3.2 1.9-4.3.4-2.2-.3-2.5c0 0-.7-2.1-1.7-2.2-.2-.1-.4-.2-.6-.3-.5-.1-1.5.4-1.7.6s.6.5 1.1.5c.5-.1.8 1.1.6 1.6s-1.1 1.5-1.5 1.3c-.3-.3-.4-1.2-.3-1.9s0-1.1-.4-.8-1.4 2.6-1.3 3.1.7 2.2.8 2.5-4.7 15.8-5.6 18.5c-1.1 2.7-1.3 5.4.8 6.7z" fill="#febd9d"/><path d="m50.2 21.6c-.1-.4-.1-.8-.2-1.2 0 0 0-.1.1-.1 0 0 .1 0 .1.1.1.4.1.8 0 1.2.1 0 .1 0 0 0z" fill="#ef8a66"/><path d="m49.1 21.5s-.1-.1 0 0c-.1-.6-.2-1.1-.3-1.6 0 0 0-.1.1-.1 0 0 .1 0 .1.1.1.4.2 1 .1 1.6.1-.1.1 0 0 0z" fill="#ef8a66"/><path d="m43.3 21.2 1.5-.9c-.4.7-.7 1.7-.7 2l-.3.1c-.4-.2-.7-.7-.5-1.2z" fill="#683f1d"/><path d="m43 22.5-1.1.2.7-.8z" fill="#683f1d"/><path d="m44.2 22.5c-.1 0-.1-.1 0 0-.2-.5.8-2.9 1.3-3.2.2-.1.3-.1.5-.1.1.1.2.2.2.5 0 .2 0 .3-.1.5 0 .2-.1.5-.1.7v.2.1.2c0 .2.1.5.3.6h.1c.4-.1 1-.9 1.2-1.3 0-.1.1-.2.1-.3 0 0 0-.1.1-.1 0 0 .1 0 .1.1s0 .3-.1.4c-.2.4-.8 1.2-1.3 1.4-.1 0-.2 0-.3 0-.2-.2-.3-.5-.3-.7v-.1s0-.1 0-.2v-.2c0-.3 0-.5.1-.8 0-.2.1-.3.1-.5s0-.3-.1-.3-.2 0-.3.1c-.5.3-1.4 2.6-1.3 3-.1-.1-.1-.1-.2 0z" fill="#ef8a66"/><path d="m46.9 19.2c-.4 0-.9-.2-1-.4 0-.1 0-.2.1-.2.3-.3 1.3-.8 1.8-.7.2.1.4.2.7.3 0 0 .1.1 0 .1 0 0-.1.1-.1 0-.2-.1-.4-.2-.6-.3-.5-.1-1.4.4-1.7.6v.1c.1.1.5.3.8.3 0 0 .1.1 0 .2z" fill="#ef8a66"/><path d="m50.7 21.9c-.1 0-.1-.1 0 0 0-.7-.2-1.2-.6-1.3 0 0 0 0 0-.1-.1-.4-.3-.7-.4-1v-.1h.1c.2.3.3.7.4 1 .4.2.6.7.5 1.5.1-.1 0 0 0 0z" fill="#ef8a66"/><path d="m50.6 18.9-1 .5-1.9 1-1.8 1c-.1-.4-.1-.8 0-1.2 0-.2.1-.3.1-.5l.9-.5 1.5-.9 1.5-.8z" fill="#683f1d"/><path d="m49.6 17.4c-.1.4.2 1.5.9 1.7l.5-.3-.9-1.7z" fill="#fff"/><path d="m50.9 17.8c.3.5.3 1 .1 1.1s-.6-.2-.8-.7-.3-1-.1-1.1c.1-.1.5.2.8.7z" fill="#683f1d"/><path d="m44.2 22.5c-.1 0-.1-.1 0 0-.2-.5.8-2.9 1.3-3.2.2-.1.3-.1.5-.1.1.1.2.2.2.5 0 .2 0 .3-.1.5 0 .2-.1.5-.1.7v.2.1.2c0 .2.1.5.3.6h.1c.4-.1 1-.9 1.2-1.3 0-.1.1-.2.1-.3 0 0 0-.1.1-.1 0 0 .1 0 .1.1s0 .3-.1.4c-.2.4-.8 1.2-1.3 1.4-.1 0-.2 0-.3 0-.2-.2-.3-.5-.3-.7v-.1s0-.1 0-.2v-.2c0-.3 0-.5.1-.8 0-.2.1-.3.1-.5s0-.3-.1-.3-.2 0-.3.1c-.5.3-1.4 2.6-1.3 3-.1-.1-.1-.1-.2 0z" fill="#ef8a66"/><path d="m18.5 45.9c-.7 3-5.3 2-5.5.5s.2-1.9.5-4.7c.3-2.3 4.1-2.3 4.8-.8.1.2.1.5.1.8-.1.8-.1 1.6 0 2.3.1.8.2 1.4.1 1.9z" fill="#febd9d"/><path d="m18.4 41.7c-.1.8-.1 1.6 0 2.3-2-.6-2.3-2.8-2.3-2.8l2.2-.3c.2.3.2.6.1.8z" fill="#f4a789"/><path d="m6.7 66.8 4.4 1.7s-.6 5.1-.7 5c0-.1-7.5-.8-7.5-.8z" fill="#febd9d"/><path d="m.2 69.8c.6 2.2 2.2 3 3.7 3s3.5-.8 4.3-3.2c.6-1.8-.7-3.9-.7-3.9z" fill="#fff"/><path d="m8.7 96.2s.6-3.1-.6-8.2c-.5-2-.7-4.1-.7-6.1.1-3.2 1.1-6.7 3.5-11.5l15.5-.6c.7 2.1 1.3 4.1 1.9 5.9 1.7 5.5 2.9 9.4 3.7 12 1.1 3.5 2.9 8.5 2.9 8.5z" fill="#fed81d"/><path d="m28.2 75.6c-1.6 4.7-3.9 6.9-9.9 4.7-5.4-2-7.4-3.4-10.9 1.5.1-3.2 1.1-6.7 3.5-11.5l15.5-.6c.7 2.2 1.3 4.1 1.8 5.9z" fill="#ffe05c"/><path d="m26.8 61.7c-.9 3.3-.1 6.9.3 7.7.3.8.1 1.3-.4 1.4s-15.3.5-16 .4-.9-.6-.9-1.2-1.2-4.4-1.7-6c0 0-.1 4.4-1.3 5.8s-4.1 1.9-5.9.9c-.3-.2-.6-.5-.7-.9-.7-2.1.4-7 1.1-10.4.3-1.4.7-3.1 1.2-4.9 1.1-3.5 2.6-7 4.5-7.6 4.3-1.4 7.4-.8 9.6-1.1.7-.1 1.4-.1 2-.2 3.6-.5 6.3-.9 7.7 1.4.2.4.4.8.5 1.2.8 2.8.5 4.6.3 7.2v.3c.4 1.9.2 4-.3 6z" fill="#c3dcf8"/><path d="m8.1 64s-.1 4.4-1.3 5.8-4.1 1.9-5.9.9c-.3-.2-.6-.5-.7-.9 5.8 1.7 7.7-4.4 6.2-5.6s-1.5-4.2-.6-5.7c.6 1.8 1.8 4 2.3 5.5z" fill="#a7caf0"/><path d="m26.5 46.9c-1.6 1.2-3 2.8-3.6 4.9-.4 1.4-1 2.5-1.8 3.3-2.2 2.1-6 1.9-10.9-.9-3.4-1.9-5.7-1.5-7.7.2 1.1-3.5 2.6-7 4.5-7.6 4.3-1.4 7.4-.8 9.6-1.1.7-.1 1.4-.1 2-.2 3.8-.5 6.6-.9 7.9 1.4z" fill="#d0e5f7"/><path d="m8.1 64c-.1 0-.1 0 0 0-.3-.8-.7-1.7-1.1-2.7s-.9-2-1.2-2.8c-.2-.5-.3-1.1-.4-1.6 0 0 0-.1.1-.1 0 0 .1 0 .1.1.1.5.2 1.1.4 1.6.3.9.7 1.9 1.2 2.8.4 1 .8 1.9 1.1 2.6-.1.1-.2.1-.2.1z" fill="#83addf"/><path d="m42.9 50.9c-.9.6-6.2 2.1-10.4 3.3-1.7.5-3.4.8-5.1 1-1.5.2-3.1.2-4.6.1-.5 0-1.1-.1-1.6-.3-6.5-1.6-5.5-9-2.4-9.6 4.4-.8 8.9-1.3 13.4-1.6 1.9-.1 3.9-.2 5.9-.1 7.5.2 5.7 6.6 4.8 7.2z" fill="#c3dcf8"/><path d="m24.6 55.5c-.6 0-1.3 0-1.9-.1 0 0-.1 0-.1-.1s0-.1.1-.1c1.5.1 3.1.1 4.6-.1 1.7-.2 3.4-.5 5.1-1l1.2-.3c3.9-1.1 8.4-2.4 9.2-2.9h.1v.1c-.9.6-5.3 1.8-9.2 3l-1.2.3c-1.7.5-3.4.8-5.1 1-1 .1-1.9.2-2.8.2z" fill="#83addf"/><path d="m32.2 43.8c-1.7.7-3.9 1.7-5.7 3.1-1.6 1.2-3 2.8-3.6 4.9-.4 1.4-1 2.5-1.8 3.3-6.5-1.6-5.5-9-2.4-9.6 4.6-.8 9-1.4 13.5-1.7z" fill="#d0e5f7"/><path d="m37.4 43.7c1.1-.4 2.4-.4 4 .4 1.9.9 3.5 3.2 2.7 6.4-.1.5-2.1 1.5-2.4 1.3-.4-.2 2.2-6.7-4.3-8.1z" fill="#fff"/><path d="m14.1 42c3.9.9 5.9.5 6.4-1.5.5-2.1-1.6-5.2-1.6-5.2l.2-1.1c-.5-.2-.9-.5-1.4-.7-.2-.2-.9-1.9-1.5-2.1s-5.1 2.1-3.8 6 1.7 4.6 1.7 4.6z" fill="#febd9d"/><path d="m17.9 36.3c-.1.4-.8.6-1.6.4-.7-.2-1.2-.8-1.1-1.2s.8-.6 1.6-.4 1.3.8 1.1 1.2z" fill="#f4af90"/><path d="m18.9 35.3.1-1.2c-.5-.2-.9-.4-1.3-.7 0 0-.1-.1 0-.1 0 0 .1-.1.1 0 .4.3.9.5 1.4.7 0 0 .1.1 0 .1l-.3 1.2c.1 0 .1 0 0 0z" fill="#ef8a66"/><path d="m15.7 50c-1.9.5-2.3-1.4-2.3-1.4-1.5 1.6-3.3 1.1-3.7.3 0 0-1.5.6-2.7-.3-1.7-1.3-.6-3.1-.6-3.1-1.8-.5-1.4-2.3-.4-3l.1-.1c1-.7 2.9-1.1 2.2-2.5-.7-1.5-1.3-3.5.5-4.6 0 0 .1-2.2 1.4-2.9s1.4-1 1.5-1.4c.1-1.5 1.5-2.9 3.1-1.8 0 0 .1.1.2.1 1.7-.2 2.1 1.4 1.8 2.2.6 2-.8 3.5-.4 4.2.5.8.1 1.7.1 1.7-.7-1.1-1.6-1.5-2.1-.5-.5.8-.1 1.8 1.5 2.7 1.7 1 .9 2.4.5 3.4-.4 1.2-.3 2.5.4 3.5.8 1.2.8 3-1.1 3.5z" fill="#7f542d"/><path d="m15.7 50c-1.9.5-2.3-1.4-2.3-1.4-1.5 1.6-3.3 1.1-3.7.3 0 0-1.5.6-2.7-.3-1.7-1.3-.6-3.1-.6-3.1-1.8-.5-1.4-2.3-.4-3l.1-.1c.7 2 2 3.1 3.3 2.7 1.7-.4 2.7-1.4 4.4-.4s2.1-3.7-.3-4.4-2.8-4.7-.8-5.2c1.5-.4 2.9-3.5 2.1-5.9 0 0 .1.1.2.1 1.7-.2 2.1 1.4 1.8 2.2.6 2-.8 3.5-.4 4.2.5.8.1 1.7.1 1.7-.7-1.1-1.6-1.5-2.1-.5-.5.8-.1 1.8 1.5 2.7 1.7 1 .9 2.4.5 3.4-.4 1.2-.3 2.5.4 3.5.8 1.2.8 3-1.1 3.5z" fill="#704725"/><path d="m17.2 34.5c0 .2.1.3.3.3s.3-.1.3-.3-.1-.3-.3-.3c-.1-.1-.3.1-.3.3 0-.1 0 0 0 0z" fill="#683f1d"/><path d="m6.4 45.5c-.1 0-.1-.1-.1-.1.6-1.3 1.2-1.6 1.8-1.9.2-.1.4-.2.6-.4.7-.5 1-1.7.9-2.2 0 0 0-.1.1-.1 0 0 .1 0 .1.1.1.5-.2 1.8-.9 2.4-.2.2-.4.3-.6.4-.7.2-1.2.5-1.9 1.8z" fill="#a56f42"/><path d="m9.7 48.9c-.6-.8-.5-1.9.2-2.6h.1v.1c-.6.6-.7 1.6-.2 2.3 0 .1 0 .2-.1.2z" fill="#a56f42"/><path d="m13.4 48.6c-.3-.7-.3-1.3 0-1.9 0 0 .1-.1.1 0 0 0 .1.1 0 .1-.3.5-.3 1.2-.1 1.7.1.1.1.1 0 .1z" fill="#a56f42"/><path d="m12 32.6c-.1-.1-.1-.2 0-.2.8-.2 1-.6 1.2-1.1.1-.1.1-.2.2-.3.3-.6.8-1.6 1.7-1.7 0 0 .1 0 .1.1s0 .1-.1.1c-.8.1-1.3 1-1.6 1.6-.1.1-.1.2-.2.3-.2.5-.4 1-1.3 1.2z" fill="#a56f42"/><path d="m16.9 31.6c-.1 0-.1 0 0 0-.3-.4-.7-.9-1.2-1-.3-.1-.7 0-1 .3h-.1v-.1c.3-.3.7-.4 1.1-.3.6.1 1 .6 1.2 1 .1.1.1.1 0 .1z" fill="#a56f42"/><path d="m15.1 38.3c-.1-.5.1-.8.4-.9.3-.2.8 0 1.2.4v.1h-.1c-.3-.3-.7-.4-1-.3s-.4.3-.5.7c.1 0 .1 0 0 0z" fill="#ef8a66"/><path d="m16.3 38.7c-.2 0-.4-.1-.5-.3s-.1-.4 0-.6c.1-.1.3-.3.6-.3 0 0 .1 0 .1.1 0 0 0 .1-.1.1-.2 0-.4.1-.5.2s-.1.3 0 .4.2.2.4.2v.2c0-.1 0 0 0 0z" fill="#ef8a66"/><path d="m19.1 37c-.3 0-.7-.2-.9-.4v-.1h.1c.2.3.6.4 1 .3 0 0 .1 0 .1.1 0 0 0 .1-.1.1 0-.1-.1 0-.2 0z" fill="#ef8a66"/><path d="m16.3 39.5c-.3 0-.9 0-1.3-.4v-.1h.1c.5.4 1.3.3 1.3.3s.1 0 .1.1c0 0 0 .1-.1.1 0 0 0 0-.1 0z" fill="#ef8a66"/><circle cx="17" cy="39.2" fill="#fff" r=".6"/><path d="m16.5 34.2c.3.2 1.1-1.2.5-1.6-.6-.5-.9 1.3-.5 1.6z" fill="#7f542d"/><path d="m2.8 95.1h140.9c1.2 0 2.2 1 2.2 2.2v.4c0 1.2-1 2.2-2.2 2.2h-140.9c-1.2 0-2.2-1-2.2-2.2v-.4c0-1.2 1-2.2 2.2-2.2z" fill="#ededed"/><g fill="#ddd"><path d="m4.9 100c-.1-.1-.1-.1 0-.2 3.4-1.6 9.1-2.3 13.5 0 0 0 .1.1 0 .1 0 0-.1.1-.1 0-4.4-2.2-10-1.5-13.4.1z"/><path d="m24.4 100c-4-2-7.4-3-10-3h-.1-.8c-4 .1-6.4.1-9.9-1.8 0 0-.1-.1 0-.1 0 0 .1-.1.1 0 3.4 1.9 5.9 1.9 9.8 1.8h.8c2.7 0 6.1 1 10.2 3 0 0 0 0-.1.1.1 0 .1 0 0 0z"/><path d="m25.5 98.1c-.9 0-2.3-.6-4.5-3v-.1h.1c3.3 3.8 4.9 2.9 5.3 2.6 1.1-.9 2.1-1 3-.2.2.2.5.3.8.2.8-.1 1.7-1 2.8-2.6 0 0 .1-.1.1 0 0 0 .1.1 0 .1-.8 1.2-1.9 2.6-2.9 2.7-.3 0-.7 0-.9-.3-.9-.8-1.8-.7-2.8.2-.1.2-.5.4-1 .4z"/><path d="m47.9 100c-2.4-1-6.9-2.7-10.4-2.4-3 .2-4.9 1.4-5.9 2.4h-.1v-.1c1.1-1 3-2.2 6-2.4 3.6-.2 8.1 1.4 10.5 2.4 0 0 0 0-.1.1z"/><path d="m52.8 97.9c-2.3 0-5.5-.7-9.6-2.8 0 0-.1-.1 0-.1 0 0 .1-.1.1 0 3.3 1.7 8.2 3.6 12.3 2.4 1.3-.4 3.4-.4 5.5-.5 3.6-.1 7.8-.2 9.7-1.9h.1s0 .1 0 .1c-2 1.7-6.1 1.8-9.8 1.9-2.1.1-4.2.1-5.5.5-.7.3-1.7.4-2.8.4z"/><path d="m59 100c-.1-.1-.1-.1 0-.2 2.8-1.6 6.9-2.4 10.1 0v.1h-.1c-3.1-2.3-7.2-1.5-10 .1z"/><path d="m73.6 100c-.1-.1-.1-.1-.1-.2 4.7-3.6 14.4-4.7 23.2-2.5 9.8 2.5 14.1-.4 15.8-2.4h.1v.1c-1.7 2-6.1 4.9-16 2.4-8.6-2.1-18.2-1-23 2.6.1 0 .1 0 0 0z"/><path d="m96.1 100c-.1 0-.1 0 0 0-4.6-1.8-9.5-1.8-13.5 0h-.1v-.1c4-1.8 8.9-1.8 13.6 0z"/><path d="m113.8 100c-.1-.1-.1-.1 0-.2 5.7-2.6 10.6-2.6 15.3 0 0 0 .1.1 0 .1 0 0-.1.1-.1 0-4.7-2.5-9.5-2.5-15.2.1z"/><path d="m138.3 99c-4.7 0-10.3-1.9-16.1-3.8 0 0-.1-.1-.1-.1s.1-.1.1-.1c9.2 3.1 17.9 6 23.4 1.4h.1v.1c-2 1.8-4.5 2.5-7.4 2.5z"/><path d="m138 97.3c-2.7 0-5.4-.7-7.9-2.2 0 0-.1-.1 0-.1 0 0 .1-.1.1 0 4.7 2.8 10.6 2.9 14.4.3h.1v.1c-1.9 1.3-4.2 1.9-6.7 1.9z"/></g></svg>